<svg width="2096" height="2160" viewBox="0 0 2096 2160" fill="none" xmlns="http://www.w3.org/2000/svg">
<g clip-path="url(#clip0_2_3)">
<path d="M0 0C691.68 0 1383.36 0 2096 0C2096 712.8 2096 1425.6 2096 2160C1404.32 2160 712.64 2160 0 2160C0 1447.2 0 734.4 0 0Z" fill="#FCDC4F"/>
<path d="M0 0C691.68 0 1383.36 0 2096 0C2096 712.8 2096 1425.6 2096 2160C1404.32 2160 712.64 2160 0 2160C0 1447.2 0 734.4 0 0ZM900 99C899.039 99.0943 898.078 99.1886 897.087 99.2857C869.666 101.927 869.666 101.927 842.491 106.326C837.847 107.223 833.188 107.881 828.5 108.5C819.602 109.724 810.808 111.242 802 113C800.907 113.211 800.907 113.211 799.792 113.427C768.16 119.607 736.232 127.344 705.542 137.187C702.92 138.026 700.293 138.845 697.664 139.66C695.963 140.19 694.263 140.72 692.562 141.25C691.811 141.484 691.059 141.718 690.285 141.96C686.089 143.285 681.966 144.736 677.855 146.304C674.318 147.631 670.716 148.766 667.125 149.938C658.728 152.792 650.503 156.133 642.25 159.375C641.051 159.844 639.852 160.313 638.617 160.797C571.945 186.974 507.89 220.545 449.125 261.52C446.795 263.143 444.46 264.759 442.125 266.375C431.576 273.696 421.205 281.208 411 289C409.836 289.884 408.672 290.768 407.508 291.652C400.549 296.955 393.745 302.428 387 308C385.209 309.459 383.417 310.917 381.625 312.375C372.4 319.931 363.357 327.618 354.59 335.703C351.391 338.54 348.036 341.108 344.582 343.625C344.06 344.079 343.538 344.532 343 345C343 345.66 343 346.32 343 347C342.142 347.368 342.142 347.368 341.267 347.743C338.613 349.215 336.855 350.936 334.734 353.105C333.522 354.334 333.522 354.334 332.285 355.588C331.449 356.446 330.612 357.304 329.75 358.188C324.547 363.501 319.34 368.698 313.693 373.541C308.29 378.198 303.552 383.467 298.914 388.867C296.695 391.339 294.363 393.666 292 396C287.784 400.178 283.838 404.476 280 409C278.044 411.293 276.084 413.584 274.125 415.875C273.604 416.486 273.083 417.096 272.546 417.726C269.567 421.207 266.538 424.627 263.438 428C259.443 432.398 255.785 437.008 252.147 441.701C249.262 445.417 246.301 449.043 243.25 452.625C236.119 461.122 229.599 470.089 223 479C221.747 480.685 220.495 482.37 219.242 484.055C209.135 497.678 199.559 511.556 190.398 525.833C189.048 527.926 187.683 530.009 186.312 532.09C167.468 560.761 149.746 591.112 135.226 622.21C132.771 627.449 130.17 632.557 127.289 637.578C126.004 639.992 124.924 642.453 123.866 644.974C122.501 648.168 121.036 651.317 119.586 654.474C115.799 662.728 112.085 671.005 108.562 679.375C108.245 680.128 107.928 680.881 107.601 681.657C104.112 690.015 101.087 698.515 98.1621 707.084C97.0234 710.359 95.9336 713.1 94 716C93.4782 717.38 93.0008 718.776 92.5586 720.184C91.622 723.094 90.661 725.981 89.5977 728.848C83.6675 745.04 78.9304 761.615 74.042 778.143C72.6508 782.84 71.2228 787.524 69.7617 792.199C68.3096 796.892 67.0559 801.579 66 806.375C64.8225 811.559 63.5578 816.691 62.125 821.812C54.617 849.607 49.1704 878.508 45.5 907.062C45.3718 908.048 45.2436 909.033 45.1116 910.048C44.1988 917.169 43.3958 924.297 42.7344 931.446C42.3563 935.34 41.8006 939.126 41.0391 942.965C39.7347 949.926 39.1788 956.939 38.6223 963.99C38.443 966.244 38.2505 968.496 38.0566 970.748C35.8775 997.033 35.8114 1023.43 35.8147 1049.79C35.8148 1053.15 35.8077 1056.51 35.7942 1059.86C35.7202 1078.5 35.9393 1096.91 37.7638 1115.47C38.1113 1119.19 38.3456 1122.92 38.5625 1126.65C38.6746 1128.49 38.6746 1128.49 38.7891 1130.37C38.9331 1132.81 39.0736 1135.24 39.2109 1137.68C39.5822 1143.68 40.1694 1149.4 41.4648 1155.27C42.1375 1158.7 42.5785 1162.15 43 1165.62C43.0824 1166.3 43.1648 1166.98 43.2498 1167.68C43.5876 1170.49 43.9186 1173.31 44.25 1176.12C45.0984 1183.29 45.9703 1190.4 47.4819 1197.46C48.3522 1201.73 49.0058 1206.03 49.6995 1210.33C54.6776 1242.14 54.6776 1242.14 63.0664 1273.17C63.8533 1275.56 64.3607 1277.72 64.75 1280.19C65.8726 1286.09 67.7619 1291.71 69.6162 1297.41C71.4493 1303.11 73.0393 1308.82 74.5 1314.62C76.4571 1322.35 78.9274 1329.78 81.6523 1337.26C83.6068 1342.68 85.2663 1348.15 86.7031 1353.73C88.031 1358.85 89.5799 1363.51 91.832 1368.29C93.4144 1371.96 94.6962 1375.72 96 1379.5C97.813 1384.74 99.7062 1389.85 102.062 1394.88C103.608 1398.38 104.823 1402 106.07 1405.62C106.982 1408.21 106.982 1408.21 109 1411C109.667 1413 110.333 1415 111 1417C111.965 1419.27 112.976 1421.52 113.996 1423.77C114.86 1425.69 115.684 1427.62 116.5 1429.56C117.605 1432.1 118.753 1434.54 120 1437C122.142 1441.23 124.103 1445.53 125.723 1449.99C128.525 1457.53 132.323 1464.48 136.105 1471.55C138.125 1475.33 140.101 1479.13 142.051 1482.95C149.076 1496.67 156.529 1510.07 164.41 1523.32C165.856 1525.76 167.291 1528.2 168.719 1530.65C180.367 1550.63 180.367 1550.63 193 1570C193.795 1571.16 194.589 1572.33 195.383 1573.49C200.307 1580.7 205.286 1587.86 210.312 1595C210.792 1595.68 211.271 1596.36 211.764 1597.06C214.633 1601.12 217.579 1605.12 220.573 1609.08C222.271 1611.36 223.899 1613.69 225.523 1616.02C229.633 1621.91 233.974 1627.46 238.678 1632.89C242.52 1637.35 246.084 1641.99 249.625 1646.69C254.461 1653.09 259.527 1659.13 265 1665C266.13 1666.29 267.255 1667.58 268.375 1668.88C271.359 1672.3 274.422 1675.66 277.5 1679C281.107 1682.92 284.667 1686.87 288.158 1690.89C294.558 1698.22 301.149 1705.31 308.023 1712.19C308.85 1713.02 309.677 1713.85 310.529 1714.71C312.264 1716.45 314 1718.19 315.737 1719.92C318.367 1722.55 320.988 1725.19 323.609 1727.83C334.751 1739.02 334.751 1739.02 346.767 1749.25C350.236 1751.97 353.428 1754.97 356.625 1758C357.288 1758.63 357.951 1759.25 358.635 1759.9C363.844 1764.84 368.971 1769.87 374.062 1774.94C374.752 1775.62 375.442 1776.31 376.153 1777.01C381.534 1782.41 386.554 1788.04 391.411 1793.92C399.761 1803.95 408.872 1813.14 418.128 1822.33C420.765 1824.95 423.393 1827.58 426.02 1830.21C427.716 1831.9 429.412 1833.59 431.109 1835.28C431.884 1836.05 432.658 1836.82 433.455 1837.62C437.602 1841.73 441.828 1845.69 446.257 1849.5C448.895 1851.77 451.442 1854.14 454 1856.5C465.328 1866.92 477.073 1876.87 489.02 1886.57C491.213 1888.36 493.396 1890.15 495.574 1891.96C505.014 1899.74 514.718 1907.1 524.624 1914.28C526.933 1915.95 529.236 1917.63 531.539 1919.32C554.907 1936.35 579.001 1952.45 604 1967C604.923 1967.54 605.847 1968.08 606.798 1968.63C626.158 1979.93 645.61 1991.05 665.76 2000.89C667.523 2001.76 669.279 2002.65 671.033 2003.54C679.149 2007.64 687.344 2011.51 695.642 2015.23C697.632 2016.13 699.621 2017.03 701.609 2017.93C709.352 2021.42 717.136 2024.79 725 2028C726.139 2028.47 727.279 2028.93 728.453 2029.41C732.173 2030.93 735.897 2032.44 739.625 2033.94C740.279 2034.2 740.932 2034.46 741.606 2034.73C750.784 2038.42 759.994 2041.86 769.434 2044.82C773.062 2046.02 776.487 2047.49 780 2049C783.084 2050.13 786.195 2051.16 789.312 2052.19C790.668 2052.64 790.668 2052.64 792.051 2053.09C810.877 2059.28 829.822 2065.01 849 2070C850.337 2070.35 851.673 2070.7 853.01 2071.05C870.836 2075.72 888.577 2079.95 906.773 2082.93C911.109 2083.64 915.389 2084.5 919.68 2085.45C927.99 2087.26 936.354 2088.65 944.75 2090C945.559 2090.13 946.368 2090.26 947.202 2090.4C960.357 2092.51 973.514 2094.32 986.773 2095.67C990.206 2096.02 993.636 2096.4 997.066 2096.77C1027.04 2100 1056.93 2101.36 1087.06 2101.32C1090.27 2101.31 1093.47 2101.32 1096.68 2101.34C1117.84 2101.45 1138.68 2100.58 1159.74 2098.55C1165.79 2097.98 1171.84 2097.63 1177.91 2097.33C1183.86 2097.04 1189.72 2096.43 1195.62 2095.62C1197.68 2095.36 1199.73 2095.09 1201.78 2094.82C1202.8 2094.68 1203.83 2094.54 1204.89 2094.4C1207.97 2094 1211.05 2093.64 1214.13 2093.28C1226.49 2091.83 1238.63 2089.87 1250.83 2087.43C1253.65 2086.87 1256.48 2086.4 1259.31 2085.94C1292.48 2080.52 1325.63 2072.73 1357.7 2062.64C1362.92 2061.01 1368.17 2059.53 1373.44 2058.06C1381.27 2055.86 1389.02 2053.43 1396.75 2050.88C1397.74 2050.55 1398.73 2050.23 1399.74 2049.89C1404.96 2048.14 1409.98 2046.2 1414.98 2043.91C1417.87 2042.61 1420.83 2041.52 1423.81 2040.44C1431.66 2037.54 1439.46 2034.5 1447.25 2031.44C1448.42 2030.98 1449.59 2030.52 1450.8 2030.05C1464.01 2024.85 1476.93 2019.27 1489.75 2013.19C1490.92 2012.63 1490.92 2012.63 1492.11 2012.07C1515.45 2001.01 1538.67 1989.78 1560.99 1976.76C1563.73 1975.16 1566.47 1973.58 1569.22 1972C1585.15 1962.82 1600.74 1953.26 1616 1943C1616.93 1942.37 1617.87 1941.75 1618.83 1941.1C1636.17 1929.45 1653.12 1917.38 1669.55 1904.47C1672.48 1902.18 1675.42 1899.92 1678.38 1897.68C1687.31 1890.96 1695.86 1883.94 1704.24 1876.54C1707.02 1874.11 1709.86 1871.75 1712.69 1869.38C1720.87 1862.5 1728.78 1855.34 1736.26 1847.71C1737.96 1846.04 1739.72 1844.49 1741.54 1842.95C1746.79 1838.38 1751.68 1833.46 1756.6 1828.54C1757.6 1827.53 1758.6 1826.53 1759.61 1825.53C1761.7 1823.44 1763.79 1821.35 1765.87 1819.26C1768.53 1816.6 1771.19 1813.94 1773.85 1811.29C1775.92 1809.22 1777.98 1807.15 1780.05 1805.09C1781.03 1804.11 1782.01 1803.13 1782.99 1802.15C1788.02 1797.13 1792.94 1792.08 1797.56 1786.68C1799.78 1784.09 1802.11 1781.62 1804.44 1779.12C1808.47 1774.77 1812.25 1770.29 1815.91 1765.62C1818.33 1762.58 1820.85 1759.64 1823.38 1756.69C1828.38 1750.81 1833.12 1744.76 1837.77 1738.61C1839.39 1736.49 1841.02 1734.39 1842.65 1732.28C1844.77 1729.53 1846.89 1726.76 1849 1724C1849.46 1723.4 1849.91 1722.81 1850.38 1722.19C1871.29 1694.78 1890.17 1665.93 1907.78 1636.3C1909.77 1632.97 1911.83 1629.74 1914.06 1626.56C1917.09 1622.11 1919.4 1617.34 1921.75 1612.51C1924.79 1606.32 1928.1 1600.3 1931.5 1594.29C1934.15 1589.59 1936.62 1584.84 1939 1580C1939.62 1578.77 1940.24 1577.54 1940.86 1576.32C1945.43 1567.25 1949.83 1558.12 1954.1 1548.92C1954.89 1547.24 1955.69 1545.56 1956.48 1543.88C1964.6 1526.7 1971.55 1508.98 1978.18 1491.19C1978.92 1489.23 1979.66 1487.27 1980.41 1485.32C1982.99 1478.43 1985.3 1471.44 1987.67 1464.48C1988.32 1462.57 1988.97 1460.66 1989.62 1458.75C1990.01 1457.62 1990.39 1456.49 1990.79 1455.33C1991.64 1453 1992.56 1450.7 1993.55 1448.42C1994.8 1445.46 1995.78 1442.64 1996.61 1439.55C1997.03 1438.03 1997.03 1438.03 1997.46 1436.47C1997.74 1435.43 1998.02 1434.39 1998.31 1433.31C2000.15 1426.56 2002.04 1419.83 2004.1 1413.13C2007.81 1401 2010.94 1388.76 2013.94 1376.44C2014.2 1375.38 2014.46 1374.32 2014.72 1373.22C2020.94 1347.71 2026.62 1322.06 2030 1296C2030.12 1295.06 2030.25 1294.12 2030.37 1293.16C2031.15 1287.23 2031.15 1287.23 2031.91 1281.3C2032.51 1276.55 2033.19 1271.84 2033.96 1267.12C2035.41 1257.81 2036.17 1248.44 2037 1239.06C2037.09 1238.08 2037.17 1237.1 2037.26 1236.09C2037.7 1231.15 2038.12 1226.21 2038.54 1221.27C2038.81 1218.17 2039.08 1215.07 2039.38 1211.96C2042.83 1175.13 2041.6 1137.66 2040.12 1100.75C2040.07 1099.25 2040.07 1099.25 2040.01 1097.71C2039.58 1087.02 2038.94 1076.36 2037.99 1065.7C2037.91 1064.76 2037.83 1063.81 2037.74 1062.84C2037.66 1061.97 2037.58 1061.1 2037.5 1060.21C2037.42 1059.44 2037.35 1058.68 2037.28 1057.89C2037.09 1055.92 2037.09 1055.92 2036 1054C2035.79 1052.11 2035.63 1050.21 2035.49 1048.32C2033.65 1024.97 2030.06 1002.05 2026 979C2025.87 978.26 2025.74 977.52 2025.61 976.758C2018.75 937.548 2008.53 898.438 1996.17 860.598C1994.95 856.852 1993.82 853.089 1992.74 849.301C1991.88 846.634 1990.89 844.025 1989.9 841.406C1988.86 838.636 1987.87 835.853 1986.88 833.066C1986.5 832.005 1986.12 830.943 1985.73 829.85C1984.95 827.663 1984.18 825.475 1983.4 823.287C1981.43 817.756 1979.34 812.351 1976.9 807.01C1975.54 803.979 1974.44 800.87 1973.31 797.75C1964.79 774.623 1954.27 752.07 1943.07 730.125C1941.87 727.739 1940.69 725.341 1939.52 722.941C1933.33 710.328 1926.65 698.074 1919.65 685.896C1918.01 683.012 1916.39 680.115 1914.78 677.211C1907.33 663.811 1899.41 650.815 1891 638C1890.62 637.421 1890.24 636.842 1889.85 636.246C1880.05 621.325 1870.19 606.469 1859.57 592.122C1857.86 589.816 1856.17 587.5 1854.48 585.184C1844.94 572.123 1835.13 559.385 1824.62 547.09C1822.18 544.224 1819.8 541.306 1817.44 538.375C1813.56 533.612 1809.49 529.066 1805.33 524.547C1803.38 522.411 1801.46 520.252 1799.56 518.062C1795.75 513.668 1791.79 509.4 1787.84 505.125C1785.79 502.888 1783.79 500.606 1781.81 498.303C1778.09 494.043 1774.17 490.021 1770.16 486.027C1769.43 485.301 1768.71 484.574 1767.96 483.825C1766.44 482.3 1764.91 480.777 1763.39 479.255C1761.07 476.944 1758.76 474.627 1756.45 472.311C1754.96 470.82 1753.46 469.33 1751.97 467.84C1750.95 466.816 1750.95 466.816 1749.91 465.772C1746.01 461.891 1742.01 458.183 1737.84 454.597C1734.64 451.821 1731.58 448.903 1728.5 446C1722.81 440.65 1722.81 440.65 1716.94 435.5C1708.68 428.383 1700.88 420.425 1693.83 412.113C1690.87 408.695 1687.78 405.403 1684.7 402.094C1682.52 399.743 1680.34 397.392 1678.23 394.98C1671.1 386.878 1663.45 379.297 1655.81 371.677C1653.44 369.311 1651.07 366.94 1648.71 364.568C1647.18 363.041 1645.65 361.515 1644.12 359.988C1643.08 358.941 1643.08 358.941 1642.01 357.873C1637.5 353.383 1632.82 349.15 1628 345C1626.33 343.504 1624.66 342.005 1623 340.5C1610.62 329.339 1597.97 318.469 1585 308C1584.47 307.568 1583.94 307.136 1583.39 306.69C1535.39 267.632 1483.19 234.722 1429 205C1428.25 204.584 1427.49 204.168 1426.72 203.739C1398.24 188.024 1367.94 174.812 1337.64 163.031C1332.17 160.898 1326.73 158.714 1321.3 156.473C1313.55 153.286 1305.79 150.573 1297.75 148.176C1294.43 147.135 1291.2 145.982 1287.95 144.743C1235.04 124.62 1176.87 112.737 1120.89 105.393C1117.41 104.92 1113.96 104.373 1110.5 103.816C1097.14 101.688 1083.69 100.372 1070.22 99.1972C1067.98 98.9984 1065.74 98.7885 1063.51 98.5767C1009.64 93.5538 953.833 93.6347 900 99Z" fill="#FEFEFC"/>
<path d="M962.859 95.8672C964.541 95.8665 966.223 95.8655 967.905 95.8643C971.408 95.8628 974.91 95.8649 978.413 95.8696C982.844 95.8753 987.276 95.872 991.707 95.8661C995.175 95.8624 998.643 95.8636 1002.11 95.8662C1003.74 95.8668 1005.37 95.8661 1007 95.8637C1018.7 95.8504 1030.33 96.2834 1042 97C1043.1 97.0661 1044.21 97.1322 1045.34 97.2003C1075.52 99.0588 1106.03 102.088 1135.8 107.43C1138.85 107.973 1141.91 108.495 1144.96 109.01C1162.28 111.933 1179.47 115.213 1196.58 119.207C1200.23 120.052 1203.88 120.871 1207.53 121.687C1222.05 124.961 1236.29 128.686 1250.47 133.202C1254.38 134.435 1258.31 135.598 1262.25 136.75C1263.28 137.054 1263.28 137.054 1264.34 137.363C1268.21 138.496 1272.1 139.58 1276 140.625C1286.96 143.59 1297.49 147.77 1308.1 151.795C1310.15 152.574 1312.2 153.35 1314.25 154.125C1314.92 154.377 1315.58 154.628 1316.27 154.888C1320.25 156.382 1324.26 157.761 1328.31 159.062C1332.03 160.276 1335.56 161.65 1339.11 163.309C1343.96 165.544 1348.86 167.639 1353.79 169.69C1367.99 175.6 1381.95 181.966 1395.87 188.528C1398.64 189.833 1401.43 191.122 1404.21 192.402C1415.43 197.582 1426.27 203.352 1437.06 209.366C1440.09 211.048 1443.12 212.718 1446.14 214.387C1460.33 222.229 1474.25 230.425 1488 239C1488.93 239.583 1489.87 240.166 1490.83 240.766C1503.78 248.864 1516.47 257.274 1529 266C1529.7 266.486 1530.41 266.973 1531.13 267.474C1543.38 275.937 1555.22 284.897 1567 294C1568 294.772 1568 294.772 1569.02 295.559C1587.15 309.579 1604.7 324.329 1621.59 339.809C1623.69 341.714 1625.8 343.584 1627.94 345.438C1638.73 354.851 1648.94 364.78 1659.05 374.917C1661.32 377.198 1663.6 379.473 1665.88 381.748C1667.36 383.221 1668.83 384.694 1670.3 386.168C1670.97 386.836 1671.64 387.504 1672.33 388.192C1676.19 392.072 1679.88 396.056 1683.45 400.206C1685.86 402.99 1688.37 405.68 1690.88 408.375C1694.44 412.214 1697.97 416.076 1701.44 420C1708.78 428.186 1716.55 436.082 1724.93 443.215C1728.59 446.367 1732.12 449.659 1735.66 452.931C1737.73 454.835 1739.8 456.731 1741.88 458.621C1750.24 466.233 1758.29 474.133 1766.27 482.138C1768.39 484.265 1770.52 486.387 1772.64 488.508C1774.02 489.885 1775.4 491.263 1776.77 492.641C1777.4 493.262 1778.02 493.883 1778.66 494.523C1782.41 498.291 1785.97 502.177 1789.45 506.204C1791.74 508.856 1794.12 511.424 1796.5 514C1806.92 525.328 1816.87 537.073 1826.57 549.02C1828.36 551.213 1830.15 553.396 1831.96 555.574C1839.76 565.029 1847.12 574.75 1854.31 584.672C1855.88 586.841 1857.47 588.998 1859.07 591.152C1869.57 605.406 1879.29 620.2 1889 635C1889.67 636.017 1890.33 637.034 1891.02 638.082C1900.59 652.728 1909.39 667.778 1918 683C1918.46 683.814 1918.93 684.628 1919.4 685.466C1930.29 704.589 1940.35 724.227 1950 744C1950.5 745.016 1950.5 745.016 1951.01 746.053C1960.32 765.097 1968.88 784.614 1976.1 804.551C1977.27 807.731 1978.48 810.894 1979.7 814.059C1980.19 815.355 1980.69 816.651 1981.18 817.948C1981.93 819.889 1982.67 821.83 1983.42 823.769C1985.97 830.406 1988.37 837.007 1990.33 843.844C1991.04 846.262 1991.04 846.262 1992.51 849.504C1994.38 853.89 1995.62 858.345 1996.88 862.938C1998.61 869.235 2000.45 875.489 2002.42 881.719C2004.91 889.62 2007.2 897.568 2009.38 905.562C2009.66 906.618 2009.66 906.618 2009.96 907.695C2022.6 954.306 2033.34 1003.74 2035.8 1052.08C2035.9 1054.08 2035.9 1054.08 2037 1056C2037.21 1057.4 2037.36 1058.8 2037.5 1060.21C2037.58 1061.08 2037.66 1061.94 2037.74 1062.84C2037.82 1063.78 2037.91 1064.73 2037.99 1065.7C2038.12 1067.18 2038.12 1067.18 2038.26 1068.69C2039.17 1079.36 2039.71 1090.05 2040.12 1100.75C2040.17 1101.8 2040.21 1102.86 2040.25 1103.94C2041.92 1148.26 2041.37 1192.1 2037.25 1236.27C2037.02 1238.81 2036.79 1241.35 2036.56 1243.89C2035.38 1257.26 2033.93 1270.54 2031.68 1283.78C2030.98 1287.96 2030.51 1292.16 2030.06 1296.38C2029.07 1305.29 2027.42 1314.03 2025.64 1322.81C2024.94 1326.28 2024.28 1329.74 2023.61 1333.21C2017.19 1366.02 2009.57 1398.84 1998.81 1430.51C1997.26 1435.28 1995.97 1440.14 1994.72 1445C1993.52 1449.57 1991.88 1453.85 1990.09 1458.22C1987.57 1464.65 1985.57 1471.27 1983.44 1477.84C1980.97 1485.39 1978.13 1492.69 1975 1500C1974.02 1502.37 1973.04 1504.75 1972.06 1507.13C1971.3 1508.98 1970.53 1510.84 1969.77 1512.69C1969.26 1513.94 1968.74 1515.19 1968.23 1516.44C1965.3 1523.58 1962.3 1530.68 1959.06 1537.69C1958.07 1539.85 1957.12 1542.01 1956.19 1544.19C1952.6 1552.3 1948.45 1560.17 1944.44 1568.08C1944.01 1568.94 1943.57 1569.8 1943.12 1570.69C1942.76 1571.41 1942.39 1572.14 1942.01 1572.89C1940.96 1575.02 1940.96 1575.02 1940.09 1577.35C1939.07 1579.84 1937.92 1582.1 1936.61 1584.44C1936.15 1585.27 1935.69 1586.09 1935.22 1586.94C1934.73 1587.81 1934.25 1588.67 1933.75 1589.56C1930.12 1596.09 1926.62 1602.64 1923.32 1609.34C1919.28 1617.46 1914.71 1625.25 1910 1633C1908.92 1634.79 1907.85 1636.59 1906.78 1638.38C1904.86 1641.59 1902.93 1644.8 1901 1648C1900.36 1649.06 1899.72 1650.12 1899.07 1651.22C1889.97 1666.19 1880 1680.62 1870 1695C1869.51 1695.71 1869.02 1696.41 1868.52 1697.14C1861.91 1706.62 1855.11 1715.89 1848 1725C1846.77 1726.6 1845.54 1728.21 1844.31 1729.82C1842.21 1732.55 1840.11 1735.27 1838 1738C1837.57 1738.56 1837.13 1739.13 1836.68 1739.71C1831.07 1746.98 1825.29 1754.08 1819.27 1761.03C1816.41 1764.33 1813.63 1767.68 1810.94 1771.12C1807.18 1775.87 1803.14 1780.33 1799.01 1784.75C1797.19 1786.71 1795.39 1788.68 1793.6 1790.66C1784.31 1800.9 1774.52 1810.64 1764.74 1820.4C1762.24 1822.89 1759.74 1825.39 1757.25 1827.89C1755.3 1829.84 1753.34 1831.79 1751.39 1833.75C1750.03 1835.11 1748.67 1836.47 1747.31 1837.83C1742.88 1842.25 1738.39 1846.52 1733.63 1850.59C1731.53 1852.41 1729.61 1854.37 1727.69 1856.38C1723.62 1860.5 1719.27 1864.13 1714.75 1867.75C1712.09 1869.93 1709.54 1872.18 1707 1874.5C1669.16 1908.89 1625.32 1938.65 1581.37 1964.6C1579.11 1965.94 1576.85 1967.28 1574.6 1968.62C1533.14 1993.26 1489.81 2014.72 1444.94 2032.38C1444.21 2032.66 1443.49 2032.95 1442.75 2033.24C1432.17 2037.4 1421.57 2041.47 1410.87 2045.32C1408.95 2046.02 1407.03 2046.74 1405.12 2047.47C1400.51 2049.2 1395.86 2050.77 1391.19 2052.31C1390.27 2052.62 1389.35 2052.92 1388.4 2053.24C1385.6 2054.16 1382.8 2055.08 1380 2056C1379.2 2056.26 1378.4 2056.52 1377.58 2056.79C1346.72 2066.87 1314.98 2075.29 1283.12 2081.57C1280.79 2082.04 1278.47 2082.54 1276.14 2083.05C1268.06 2084.81 1260.04 2086.37 1251.84 2087.45C1248.96 2087.86 1246.14 2088.33 1243.29 2088.87C1229.27 2091.49 1215.25 2093.21 1201.07 2094.69C1200.31 2094.77 1199.55 2094.85 1198.77 2094.94C1197.33 2095.09 1195.9 2095.23 1194.47 2095.38C1190.93 2095.75 1187.49 2096.3 1184 2097C1182.19 2097.18 1180.37 2097.34 1178.55 2097.46C1177.47 2097.54 1176.39 2097.62 1175.28 2097.7C1174.16 2097.78 1173.03 2097.86 1171.88 2097.94C1169.71 2098.09 1167.54 2098.25 1165.37 2098.4C1163.47 2098.53 1163.47 2098.53 1161.53 2098.66C1158.14 2098.9 1154.76 2099.2 1151.37 2099.5C1133.35 2101.07 1115.44 2101.31 1097.36 2101.26C1093.28 2101.25 1089.2 2101.26 1085.12 2101.27C1055.08 2101.34 1025.31 2099.85 995.438 2096.69C994.4 2096.58 993.362 2096.47 992.293 2096.36C934.171 2090.26 874.604 2079.78 818.977 2061.61C811.68 2059.23 804.326 2057.03 796.98 2054.8C792.002 2053.28 787.075 2051.72 782.221 2049.84C779.302 2048.73 776.358 2047.7 773.414 2046.66C766.033 2044.03 758.7 2041.28 751.375 2038.5C749.546 2037.81 749.546 2037.81 747.68 2037.11C740.055 2034.21 732.512 2031.17 725 2028C723.026 2027.18 721.052 2026.37 719.078 2025.55C703.084 2018.88 687.211 2011.87 671.81 2003.93C669.278 2002.63 666.728 2001.37 664.178 2000.11C646.935 1991.56 630.208 1982.31 613.629 1972.54C610.336 1970.61 607.015 1968.74 603.688 1966.88C595.7 1962.33 587.971 1957.38 580.232 1952.43C578.237 1951.15 576.239 1949.88 574.238 1948.62C532.479 1922.11 492.801 1891.54 456.422 1858.05C453.645 1855.49 450.85 1852.97 448 1850.5C437.12 1841.03 426.83 1831.02 416.635 1820.82C414.311 1818.5 411.979 1816.18 409.646 1813.87C402.683 1806.93 395.913 1800.04 389.829 1792.31C387.067 1788.82 384.059 1785.6 381 1782.38C380.058 1781.38 380.058 1781.38 379.097 1780.36C364.269 1764.64 364.269 1764.64 348.003 1750.47C344.487 1747.58 341.166 1744.53 337.852 1741.41C337.161 1740.76 336.47 1740.11 335.758 1739.44C327.818 1731.94 320.083 1724.23 312.369 1716.5C309.912 1714.04 307.449 1711.58 304.986 1709.12C303.395 1707.53 301.805 1705.94 300.215 1704.35C299.492 1703.63 298.769 1702.91 298.024 1702.16C293.483 1697.6 289.193 1692.88 285 1688C283.546 1686.37 282.088 1684.75 280.625 1683.12C279.862 1682.28 279.099 1681.43 278.312 1680.56C276.815 1678.9 275.316 1677.25 273.812 1675.6C265.26 1666.17 257.078 1656.49 249.268 1646.44C246.27 1642.59 243.208 1638.8 240.107 1635.03C234.49 1628.2 229.174 1621.25 224.121 1613.99C222.841 1612.19 221.522 1610.41 220.133 1608.69C217.057 1604.81 214.263 1600.75 211.437 1596.69C210.821 1595.8 210.205 1594.92 209.57 1594.01C207.711 1591.34 205.855 1588.67 204 1586C203.468 1585.23 202.936 1584.47 202.388 1583.68C194.565 1572.42 187.168 1560.96 180.008 1549.27C178.762 1547.24 177.508 1545.22 176.242 1543.2C161.219 1519.17 147.349 1494.27 134.89 1468.81C133.361 1465.7 131.804 1462.6 130.25 1459.5C129.682 1458.36 129.113 1457.22 128.527 1456.05C127.632 1454.26 126.731 1452.48 125.816 1450.7C123.587 1446.37 121.746 1441.96 120.027 1437.39C119.042 1434.93 119.042 1434.93 117.508 1432.59C115.839 1429.72 114.908 1426.98 113.937 1423.81C112.694 1419.48 112.694 1419.48 110 1416C109.532 1414.33 109.067 1412.65 108.625 1410.97C107.978 1408.93 107.133 1407.2 106.125 1405.31C103.873 1401.01 102.473 1396.54 100.992 1391.92C100.155 1389.46 99.2284 1387.17 98.125 1384.81C95.7307 1379.66 93.9416 1374.31 92.1059 1368.94C90.7271 1364.88 90.7271 1364.88 88.9453 1360.99C87.7843 1358.55 87.2604 1356.04 86.6386 1353.42C85.2939 1348.32 83.4597 1343.36 81.75 1338.38C78.5254 1328.85 75.595 1319.31 73.0327 1309.59C71.6156 1304.22 70.0792 1298.91 68.375 1293.62C63.8702 1279.54 60.8222 1265.04 57.5937 1250.62C57.0665 1248.29 56.5225 1245.97 55.9687 1243.65C52.835 1230.34 50.7283 1216.86 48.5508 1203.37C48.1045 1200.64 47.6415 1197.92 47.1562 1195.2C45.1225 1183.73 43.7262 1172.2 42.3572 1160.64C42.2333 1159.61 42.2333 1159.61 42.1069 1158.56C41.8795 1156.66 41.6562 1154.77 41.4331 1152.88C41.1615 1150.07 41.1615 1150.07 40 1148C39.8307 1146.53 39.7148 1145.06 39.6269 1143.59C39.5702 1142.67 39.5134 1141.76 39.4549 1140.81C39.3976 1139.82 39.3403 1138.83 39.2812 1137.8C39.2184 1136.78 39.1556 1135.76 39.0909 1134.71C38.8898 1131.43 38.6945 1128.15 38.5 1124.88C38.3049 1121.62 38.1084 1118.36 37.909 1115.1C37.7851 1113.08 37.6636 1111.05 37.545 1109.02C37.4599 1107.62 37.4599 1107.62 37.373 1106.19C37.325 1105.38 37.2769 1104.57 37.2274 1103.73C37.0441 1101.53 36.7775 1099.33 36.4848 1097.14C35.9863 1093.25 35.8731 1089.43 35.8706 1085.5C35.8688 1084.8 35.8671 1084.09 35.8653 1083.37C35.8609 1081.05 35.8638 1078.74 35.8672 1076.43C35.8665 1074.79 35.8655 1073.14 35.8642 1071.5C35.8628 1068.05 35.8649 1064.6 35.8696 1061.15C35.8752 1056.82 35.872 1052.49 35.8662 1048.16C35.8359 1021.73 35.9528 995.276 38.1924 968.917C38.379 966.702 38.5493 964.486 38.7187 962.27C39.3854 953.947 40.4571 945.787 41.9024 937.565C43.1512 930.382 43.8988 923.199 44.5625 915.938C45.8543 901.89 45.8543 901.89 47.5334 894.989C48.2917 891.756 48.7155 888.471 49.1875 885.188C53.2078 858.689 58.4521 832.053 66.0508 806.344C67.0536 802.811 67.9046 799.261 68.75 795.688C70.7039 787.586 73.2778 779.703 75.8618 771.784C78.2703 764.375 80.4939 756.931 82.625 749.438C85.9631 737.782 89.8559 726.538 94.9414 715.523C96.7108 711.306 98.1636 706.972 99.6308 702.641C101.42 697.426 103.481 692.356 105.624 687.277C107.076 683.819 108.492 680.347 109.902 676.871C110.659 675.017 111.417 673.163 112.175 671.309C112.684 670.06 113.19 668.811 113.695 667.561C116.652 660.242 119.783 653.206 123.718 646.356C124.971 644.053 125.951 641.765 126.875 639.312C129.364 632.849 132.522 626.738 135.678 620.583C136.626 618.731 137.569 616.878 138.51 615.023C146.337 599.595 154.574 584.503 163.431 569.642C164.861 567.234 166.275 564.818 167.68 562.395C173.391 552.553 179.382 542.906 185.515 533.321C186.943 531.089 188.364 528.853 189.785 526.617C196.226 516.526 203.021 506.724 210 497C211.064 495.509 212.128 494.018 213.191 492.527C220.589 482.191 228.21 472.044 236 462C236.482 461.376 236.964 460.752 237.461 460.109C243.26 452.612 249.225 445.29 255.383 438.086C257.807 435.244 260.157 432.347 262.5 429.438C266.625 424.367 270.996 419.568 275.437 414.777C277.535 412.503 279.596 410.21 281.625 407.875C287.831 400.738 294.143 393.794 300.879 387.152C302.861 385.141 304.723 383.078 306.562 380.938C311.198 375.554 316.144 370.535 321.562 365.938C326.642 361.601 331.25 356.769 335.897 351.978C336.526 351.337 337.156 350.696 337.805 350.035C338.655 349.159 338.655 349.159 339.523 348.266C341 347 341 347 343 347C343 346.34 343 345.68 343 345C344.511 343.649 346.088 342.371 347.687 341.125C352.133 337.575 356.355 333.894 360.5 330C366.13 324.734 371.963 319.799 378 315C379.542 313.771 381.084 312.542 382.625 311.312C383.437 310.667 384.249 310.021 385.086 309.355C387.379 307.502 389.651 305.629 391.914 303.738C399.516 297.395 407.163 291.287 415.281 285.621C419.712 282.524 424.036 279.286 428.375 276.062C436.784 269.839 445.326 263.848 454 258C454.607 257.588 455.215 257.177 455.84 256.752C509.474 220.416 567.699 188.81 628 165C629.09 164.568 630.181 164.136 631.304 163.691C646.764 157.587 662.233 151.725 678.059 146.621C681.056 145.653 684.019 144.641 686.961 143.516C711.396 134.19 737.053 127.844 762.438 121.687C763.458 121.44 763.458 121.44 764.499 121.187C777.409 118.066 790.335 115.189 803.438 113C809.896 111.901 816.334 110.765 822.75 109.437C837.765 106.366 852.982 104.361 868.188 102.5C869.051 102.394 869.915 102.287 870.805 102.178C889.641 99.8781 908.523 98.3736 927.458 97.171C929.392 97.0409 931.325 96.8968 933.257 96.7462C943.141 96.0091 952.953 95.8529 962.859 95.8672ZM939 137C937.504 137.131 936.006 137.242 934.506 137.325C933.691 137.373 932.876 137.42 932.036 137.469C930.738 137.54 930.738 137.54 929.414 137.613C927.51 137.725 925.607 137.838 923.703 137.951C922.215 138.039 922.215 138.039 920.697 138.128C895.51 139.638 870.52 141.758 845.716 146.566C838.314 147.997 830.885 149.037 823.404 149.961C818.128 150.631 813.137 151.622 808 153C801.259 154.642 794.521 156.106 787.688 157.312C776.66 159.293 765.841 162.195 755 165C754.29 165.182 753.58 165.364 752.848 165.551C749.24 166.475 745.644 167.434 742.055 168.43C740.588 168.837 739.12 169.24 737.652 169.641C706.549 178.177 676.009 189.209 646 201C645.066 201.367 645.066 201.367 644.114 201.741C605.043 217.148 565.861 235.798 530.033 257.761C527.768 259.142 525.489 260.498 523.207 261.852C502.981 273.866 483.355 286.625 464 300C463.295 300.487 462.59 300.974 461.864 301.476C450.635 309.275 439.826 317.656 429 326C428.308 326.533 427.616 327.067 426.902 327.616C419.47 333.358 412.224 339.281 405.086 345.383C402.244 347.807 399.347 350.157 396.437 352.5C391.367 356.625 386.568 360.996 381.777 365.438C379.503 367.535 377.21 369.596 374.875 371.625C360.937 383.742 347.515 396.4 334.437 409.438C333.605 410.265 332.772 411.093 331.915 411.947C327.648 416.223 323.539 420.573 319.601 425.154C318.072 426.917 316.506 428.633 314.91 430.336C314.436 430.843 313.963 431.349 313.475 431.871C312.509 432.9 311.54 433.926 310.568 434.949C307.84 437.54 307.84 437.54 307 441C306.01 441.33 305.02 441.66 304 442C302.024 444.106 302.024 444.106 300 446.75C299.206 447.745 298.412 448.74 297.594 449.766C297.172 450.295 296.751 450.824 296.316 451.369C294.094 454.122 291.795 456.808 289.5 459.5C281.496 468.93 273.754 478.531 266.253 488.365C265.044 489.943 263.823 491.513 262.602 493.082C255.498 502.22 248.725 511.582 242 521C241.46 521.755 240.92 522.509 240.363 523.287C238.78 525.501 237.202 527.719 235.625 529.938C235.162 530.586 234.698 531.235 234.221 531.903C230.916 536.576 227.823 541.365 224.768 546.204C223.109 548.827 221.432 551.437 219.746 554.043C211.701 566.528 204.067 579.208 196.673 592.088C195.057 594.901 193.432 597.709 191.805 600.516C185.247 611.865 179 623.347 173 635C172.464 636.031 171.927 637.062 171.375 638.125C169.555 641.679 167.889 645.17 166.562 648.938C165.375 652.291 163.803 655.273 162.062 658.375C159.671 662.652 157.738 666.909 155.988 671.48C153.767 677.142 151.118 682.631 148.523 688.129C143.426 698.989 139.264 710.098 135.309 721.418C134.281 724.229 133.199 726.991 132.07 729.762C129.967 734.981 128.178 740.276 126.437 745.625C123.174 755.612 123.174 755.612 121.496 759.934C119.563 765.007 118.117 770.22 116.625 775.438C116.055 777.415 115.485 779.393 114.914 781.371C114.611 782.428 114.308 783.484 113.995 784.573C113.112 787.615 112.205 790.649 111.295 793.683C107.735 805.606 104.591 817.636 101.5 829.688C101.212 830.808 100.924 831.929 100.628 833.083C96.3881 849.669 92.7689 866.117 90.4126 883.078C89.3765 890.416 88.0779 897.68 86.5625 904.934C76.7489 953.552 75.732 1003.58 75.75 1053C75.7501 1053.8 75.7503 1054.59 75.7504 1055.42C75.6417 1090.21 75.6416 1090.21 78.8125 1124.81C79.0808 1126.78 79.3492 1128.75 79.6155 1130.73C79.7988 1132.08 79.9831 1133.44 80.1686 1134.79C81.1298 1141.85 81.9712 1148.93 82.8102 1156C84.3583 1169.03 86.0179 1182.03 88 1195C88.16 1196.06 88.32 1197.12 88.4848 1198.21C89.0034 1201.62 89.5313 1205.03 90.0625 1208.44C90.3061 1210.03 90.3061 1210.03 90.5547 1211.65C91.3455 1216.64 92.314 1221.23 94 1226C94.496 1228.41 94.9512 1230.83 95.375 1233.25C97.7157 1246.17 100.591 1258.89 104.21 1271.51C105.834 1277.23 107.116 1282.95 108.227 1288.79C108.975 1291.9 110.023 1294.77 111.179 1297.75C112.785 1302.15 113.976 1306.68 115.25 1311.19C117.589 1319.32 120.025 1327.41 122.687 1335.44C122.96 1336.27 123.233 1337.1 123.515 1337.96C125.117 1342.73 126.982 1347.3 129.07 1351.88C130.42 1354.96 131.465 1358.11 132.5 1361.31C132.709 1361.95 132.917 1362.59 133.132 1363.25C133.759 1365.16 134.38 1367.08 135 1369C137.104 1375.47 139.306 1381.75 142 1388C143.707 1392.65 145.359 1397.32 147 1402C147.66 1402 148.32 1402 149 1402C149.121 1402.55 149.242 1403.1 149.367 1403.67C153.586 1419.21 162.583 1434.3 169.824 1448.61C171.829 1452.59 173.801 1456.53 175.551 1460.63C177.443 1465.03 179.68 1469.21 181.937 1473.44C182.802 1475.06 183.665 1476.68 184.527 1478.31C184.944 1479.09 185.36 1479.87 185.789 1480.68C186.97 1482.94 188.083 1485.23 189.191 1487.54C190.59 1491.04 190.59 1491.04 193 1492C193.852 1493.85 193.852 1493.85 194.625 1496.06C194.885 1496.8 195.146 1497.53 195.414 1498.29C195.607 1498.85 195.801 1499.42 196 1500C196.66 1500 197.32 1500 198 1500C198.389 1501.07 198.389 1501.07 198.785 1502.16C200.069 1505.16 201.632 1507.66 203.437 1510.38C206.12 1514.51 208.222 1518.42 210 1523C210.653 1524.34 211.312 1525.68 212 1527C212.66 1527 213.32 1527 214 1527C214.394 1527.82 214.394 1527.82 214.797 1528.66C220.074 1538.92 226.912 1548.46 233.339 1558.02C234.221 1559.33 234.221 1559.33 235.121 1560.67C235.917 1561.85 235.917 1561.85 236.728 1563.05C238 1565 238 1565 239 1567C239.66 1567 240.32 1567 241 1567C241.278 1567.58 241.557 1568.17 241.843 1568.77C242.938 1570.88 244.132 1572.75 245.504 1574.69C245.992 1575.38 246.481 1576.07 246.984 1576.79C247.765 1577.88 247.765 1577.88 248.562 1579C249.103 1579.76 249.644 1580.52 250.201 1581.31C254.697 1587.62 259.303 1593.84 264 1600C265.02 1601.35 266.039 1602.71 267.059 1604.06C272.989 1611.9 279.048 1619.58 285.465 1627.03C287.805 1629.77 290.064 1632.56 292.312 1635.38C297.182 1641.37 302.476 1646.94 307.77 1652.55C310.71 1655.68 313.561 1658.86 316.363 1662.11C321.492 1668.03 326.736 1673.81 332.328 1679.3C334.093 1681.09 335.734 1682.96 337.375 1684.88C343.137 1691.54 349.419 1697.59 356.102 1703.32C357.98 1704.98 359.743 1706.71 361.5 1708.5C364.464 1711.51 367.567 1714.29 370.766 1717.05C374.261 1720.1 377.672 1723.24 381.094 1726.38C387.246 1731.93 393.522 1737.31 399.937 1742.56C401.436 1743.79 402.935 1745.02 404.434 1746.25C405.191 1746.87 405.949 1747.49 406.73 1748.13C408.921 1749.94 411.105 1751.75 413.285 1753.56C427.685 1765.54 442.497 1776.8 457.862 1787.5C460.035 1789.02 462.196 1790.56 464.355 1792.1C473.085 1798.33 481.915 1804.31 491 1810C491.643 1810.4 492.286 1810.81 492.949 1811.23C497.01 1813.78 501.079 1816.32 505.154 1818.85C506.769 1819.86 508.379 1820.87 509.988 1821.88C538.988 1840.01 569.094 1856.4 600.285 1870.41C603.945 1872.06 607.583 1873.74 611.211 1875.46C620.264 1879.73 629.444 1883.66 638.688 1887.5C639.475 1887.83 640.263 1888.16 641.075 1888.5C652.265 1893.15 663.49 1897.5 674.996 1901.31C678.137 1902.39 681.219 1903.61 684.312 1904.81C707.669 1913.77 731.978 1920.87 756.258 1926.82C760.193 1927.79 764.097 1928.85 768 1929.94C816.504 1942.97 867.571 1950.54 917.703 1953.51C921.662 1953.74 925.598 1954.05 929.539 1954.49C946.053 1956.26 962.534 1956.4 979.123 1956.38C981.53 1956.38 983.936 1956.38 986.343 1956.38C1015.7 1956.36 1044.78 1954.92 1074 1952C1075.33 1951.87 1075.33 1951.87 1076.68 1951.74C1136.85 1945.82 1197.07 1933.65 1254.69 1915.35C1258.03 1914.29 1261.39 1913.28 1264.75 1912.27C1265.76 1911.97 1266.77 1911.67 1267.82 1911.35C1269.8 1910.76 1271.78 1910.17 1273.76 1909.59C1279.17 1907.96 1284.4 1906.1 1289.62 1903.95C1292.55 1902.78 1295.52 1901.77 1298.52 1900.77C1311.82 1896.31 1324.71 1890.86 1337.64 1885.41C1340.62 1884.16 1343.6 1882.92 1346.59 1881.7C1354.58 1878.4 1362.4 1874.92 1370.1 1870.97C1374.09 1868.93 1378.15 1867.02 1382.21 1865.1C1396.46 1858.35 1410.42 1851.13 1424.23 1843.51C1426.1 1842.49 1427.98 1841.48 1429.87 1840.48C1437.96 1836.19 1445.81 1831.6 1453.62 1826.81C1454.86 1826.06 1456.09 1825.31 1457.32 1824.56C1472.13 1815.51 1486.79 1806.31 1501.03 1796.37C1503.76 1794.47 1506.5 1792.6 1509.25 1790.73C1516.25 1785.93 1523.18 1781.06 1530 1776C1530.6 1775.56 1531.21 1775.11 1531.83 1774.65C1539.81 1768.76 1547.64 1762.77 1555.21 1756.36C1557.91 1754.08 1560.63 1751.85 1563.38 1749.62C1573.29 1741.52 1582.93 1733.15 1592.33 1724.46C1594.57 1722.4 1596.83 1720.37 1599.12 1718.38C1600.42 1717.25 1601.71 1716.13 1603 1715C1603.96 1714.17 1603.96 1714.17 1604.94 1713.32C1613.07 1706.16 1620.68 1698.47 1628.32 1690.81C1630.69 1688.44 1633.06 1686.07 1635.43 1683.71C1636.96 1682.18 1638.49 1680.65 1640.01 1679.12C1640.71 1678.43 1641.41 1677.73 1642.13 1677.01C1646.07 1673.05 1649.84 1668.98 1653.49 1664.74C1655.16 1662.81 1656.89 1660.95 1658.65 1659.11C1659.26 1658.47 1659.86 1657.83 1660.49 1657.17C1661.11 1656.51 1661.73 1655.86 1662.38 1655.19C1667.4 1649.87 1672.21 1644.48 1676.77 1638.76C1679.4 1635.51 1682.13 1632.35 1684.88 1629.19C1690.82 1622.3 1696.45 1615.2 1702 1608C1702.86 1606.88 1703.73 1605.77 1704.59 1604.65C1707.07 1601.44 1709.54 1598.22 1712 1595C1712.73 1594.05 1713.45 1593.1 1714.2 1592.12C1724.32 1578.77 1733.78 1564.98 1743 1551C1743.98 1549.54 1744.96 1548.08 1745.94 1546.62C1746.96 1545.09 1747.98 1543.54 1749 1542C1749.37 1541.44 1749.74 1540.87 1750.13 1540.29C1755.76 1531.74 1761.22 1523.09 1766.5 1514.31C1767 1513.48 1767.51 1512.64 1768.03 1511.78C1770.05 1508.38 1771.98 1505.03 1773.72 1501.48C1775 1499 1775 1499 1777 1498C1778.36 1495.45 1779.64 1492.91 1780.88 1490.31C1783.29 1485.27 1785.86 1480.65 1789 1476C1790.05 1474 1791.08 1471.98 1792.06 1469.94C1793.47 1467.03 1794.87 1464.21 1796.56 1461.45C1798.45 1458.23 1799.65 1454.89 1800.94 1451.4C1802 1449 1802 1449 1803.5 1447.07C1805.36 1444.51 1806.02 1442.01 1807 1439C1808.55 1435.64 1810.29 1432.38 1811.99 1429.1C1814.05 1425.07 1815.76 1421.06 1817.29 1416.8C1818.25 1414.36 1819.65 1412.24 1821 1410C1821.96 1407.57 1822.88 1405.15 1823.75 1402.69C1825.84 1396.94 1828.12 1391.33 1830.62 1385.75C1833.08 1380.26 1835.18 1374.78 1836.98 1369.03C1837.97 1366.1 1839.12 1363.31 1840.36 1360.47C1843.08 1354.02 1845.14 1347.46 1847.12 1340.75C1850.87 1328.19 1850.87 1328.19 1852.47 1324.12C1855.08 1317.38 1856.92 1310.36 1858.94 1303.43C1859.51 1301.5 1860.08 1299.58 1860.65 1297.65C1860.84 1297.01 1861.03 1296.37 1861.22 1295.72C1862.54 1291.33 1864.06 1287.04 1865.65 1282.75C1867.82 1276.78 1869.22 1270.94 1870.25 1264.69C1870.56 1262.86 1870.88 1261.03 1871.2 1259.2C1871.33 1258.41 1871.46 1257.63 1871.6 1256.82C1872 1255 1872 1255 1873 1254C1873.31 1252.51 1873.56 1251 1873.8 1249.5C1873.95 1248.54 1874.1 1247.58 1874.26 1246.6C1874.42 1245.55 1874.58 1244.51 1874.75 1243.44C1876.48 1232.68 1878.57 1222.03 1880.85 1211.38C1881.23 1209.59 1881.62 1207.79 1882 1206C1882.26 1204.8 1882.26 1204.8 1882.52 1203.57C1884 1196.47 1885.01 1189.31 1886 1182.12C1886.94 1175.35 1887.88 1168.59 1889.06 1161.85C1890.06 1156 1890.57 1150.17 1891 1144.25C1891.51 1137.61 1892.07 1131.03 1893 1124.44C1896.24 1099.44 1896.3 1074.25 1896.2 1049.1C1896.18 1045.79 1896.19 1042.48 1896.19 1039.17C1896.18 1013.99 1895.69 988.953 1893.33 963.865C1893.06 961.01 1892.8 958.155 1892.55 955.299C1892.38 953.44 1892.21 951.581 1892.04 949.723C1891.96 948.89 1891.89 948.058 1891.81 947.2C1891.33 942.142 1890.51 937.24 1889.46 932.267C1888.89 929.473 1888.48 926.675 1888.11 923.848C1887.96 922.755 1887.81 921.662 1887.66 920.536C1887.5 919.39 1887.35 918.244 1887.19 917.062C1885.37 903.949 1883.05 890.969 1880.56 877.969C1879.53 872.508 1878.6 867.03 1877.68 861.551C1877.08 858.429 1876.36 855.37 1875.57 852.293C1874.9 849.592 1874.28 846.88 1873.67 844.164C1870.93 832.051 1868.05 820.03 1864.6 808.099C1863.99 805.973 1863.4 803.841 1862.82 801.707C1857.89 783.576 1852.37 765.676 1846.11 747.955C1844.43 743.2 1842.82 738.46 1841.42 733.613C1840.31 729.82 1838.81 726.519 1837 723C1835.64 719.434 1834.46 715.808 1833.25 712.189C1833 711.466 1832.75 710.742 1832.5 709.996C1832.28 709.348 1832.07 708.7 1831.84 708.033C1831.01 705.875 1831.01 705.875 1829.52 703.563C1828.04 701.06 1827.1 698.751 1826.17 696C1823.88 689.513 1821.14 683.27 1818.31 677C1818.04 676.39 1817.76 675.78 1817.48 675.151C1806.96 651.812 1795.9 628.677 1783.33 606.369C1782.01 604.022 1780.72 601.664 1779.43 599.301C1767.5 577.459 1753.92 556.62 1740 536C1739.58 535.373 1739.16 534.746 1738.72 534.1C1731.12 522.838 1723.12 511.894 1715 501C1714.13 499.827 1713.26 498.654 1712.39 497.48C1707.72 491.211 1702.91 485.08 1698 479C1697.38 478.212 1696.75 477.425 1696.11 476.613C1691.88 471.28 1687.54 466.058 1683.13 460.881C1680.27 457.529 1677.49 454.13 1674.75 450.688C1670.26 445.156 1665.4 439.993 1660.49 434.833C1657.36 431.543 1654.3 428.223 1651.32 424.793C1648.82 421.908 1646.24 419.161 1643.5 416.5C1640.76 413.837 1638.2 411.09 1635.71 408.188C1632.08 404 1628.15 400.244 1624.06 396.5C1622.65 395.189 1621.23 393.876 1619.82 392.562C1619.15 391.945 1618.49 391.328 1617.8 390.691C1615.65 388.674 1613.57 386.603 1611.5 384.5C1608.57 381.522 1605.5 378.771 1602.33 376.047C1599.34 373.418 1596.42 370.71 1593.5 368C1586.16 361.203 1578.67 354.683 1570.9 348.375C1568.01 346.01 1565.16 343.601 1562.31 341.188C1556.95 336.7 1551.4 332.493 1545.78 328.323C1542.11 325.594 1538.49 322.827 1534.94 319.938C1515.39 304.173 1494.11 290.542 1473 277C1471.82 276.241 1471.82 276.241 1470.62 275.466C1451.3 263.001 1431.23 251.913 1411 241C1410.26 240.603 1409.53 240.205 1408.77 239.796C1396.18 233.001 1383.42 226.646 1370.44 220.625C1369.83 220.344 1369.23 220.062 1368.6 219.773C1358.84 215.242 1349 210.948 1339.05 206.86C1336.82 205.924 1334.62 204.94 1332.41 203.949C1328.68 202.278 1324.91 200.785 1321.06 199.375C1316.01 197.513 1310.97 195.606 1305.96 193.637C1293.06 188.581 1280.14 183.914 1266.88 179.883C1263.77 178.929 1260.66 177.95 1257.55 176.969C1246.9 173.617 1236.25 170.377 1225.37 167.81C1220.82 166.732 1216.31 165.532 1211.81 164.255C1202.08 161.5 1192.32 159.161 1182.44 157.062C1181.65 156.894 1180.86 156.725 1180.04 156.551C1138.38 147.661 1096.44 141.73 1054 138C1053.32 137.938 1052.63 137.877 1051.92 137.813C1028.06 135.682 1004.13 135.82 980.188 135.812C979.369 135.812 978.55 135.811 977.707 135.811C972.939 135.808 968.171 135.812 963.403 135.826C961.928 135.83 960.453 135.832 958.978 135.833C956.93 135.836 954.881 135.844 952.833 135.855C951.678 135.859 950.523 135.862 949.333 135.866C945.829 136.007 942.464 136.472 939 137Z" fill="#1D1A16"/>
<path d="M1016.87 652.738C1025.36 658.869 1029.89 666.499 1034 676C1034.47 677.077 1034.47 677.077 1034.96 678.175C1037.72 684.729 1039.44 691.321 1041 698.25C1041.52 700.476 1042.04 702.701 1042.56 704.926C1042.81 705.981 1043.06 707.036 1043.31 708.124C1044.67 713.813 1046.26 719.415 1048 725C1048.23 725.728 1048.45 726.457 1048.69 727.207C1049.45 729.621 1050.22 732.03 1051 734.438C1051.24 735.184 1051.47 735.93 1051.72 736.699C1053.32 741.536 1055.39 745.626 1058 750C1059.51 753.735 1060.83 757.478 1062.09 761.305C1064.25 767.705 1066.38 773.328 1070.47 778.742C1071.79 780.693 1072.8 782.544 1073.83 784.652C1076.61 790.36 1079.93 795.758 1083.2 801.197C1083.67 802.002 1084.15 802.807 1084.64 803.637C1085.07 804.356 1085.5 805.075 1085.94 805.815C1087.1 808.202 1087.59 810.388 1088 813C1088.66 813 1089.32 813 1090 813C1091.37 814.914 1091.37 814.914 1093 817.625C1095.85 822.226 1098.81 826.713 1101.94 831.125C1102.36 831.719 1102.78 832.312 1103.21 832.924C1106.37 837.297 1109.81 841.284 1113.6 845.133C1115 847 1115 847 1115 851C1115.6 851.258 1116.2 851.516 1116.81 851.781C1119.79 853.44 1121.37 855.689 1123.44 858.344C1124.93 860.114 1124.93 860.114 1127.08 861.027C1129.72 862.365 1130.34 864.391 1131.66 866.934C1133.9 870.389 1136.96 873.013 1139.98 875.789C1142 878 1142 878 1143.02 880.711C1143.35 881.466 1143.67 882.222 1144 883C1145.91 883.628 1145.91 883.628 1148 884C1149.86 885.602 1149.86 885.602 1151.75 887.625C1156.38 892.437 1161.23 896.907 1166.56 900.938C1168.79 902.825 1170.5 904.709 1172.37 906.938C1175.57 910.705 1178.93 913.23 1183 916C1183.33 916.66 1183.66 917.32 1184 918C1184.99 918.33 1185.98 918.66 1187 919C1187.84 920.083 1187.84 920.083 1188.69 921.188C1190.73 923.667 1192.37 925.103 1194.94 926.938C1198.59 929.575 1201.14 932.499 1204 936C1205.94 937.786 1207.92 939.496 1209.94 941.191C1212.41 943.357 1214.69 945.662 1217 948C1217.82 948.825 1218.65 949.65 1219.5 950.5C1223.67 954.667 1227.83 958.833 1232 963C1232.83 963.802 1233.66 964.604 1234.51 965.43C1237.18 968.188 1239.49 971.069 1241.81 974.125C1242.24 974.686 1242.67 975.247 1243.11 975.825C1246.61 980.429 1249.99 985.12 1253.31 989.855C1254.99 992.219 1254.99 992.219 1258 994C1258 995.32 1258 996.64 1258 998C1258.66 998 1259.32 998 1260 998C1261.51 1000.12 1261.51 1000.12 1263.12 1002.88C1263.66 1003.78 1264.2 1004.68 1264.76 1005.62C1266 1008 1266 1008 1266 1010C1266.99 1010.33 1267.98 1010.66 1269 1011C1271.65 1014.91 1273.41 1019.31 1274 1024C1274.66 1024 1275.32 1024 1276 1024C1284.9 1036.27 1290.5 1051.26 1295.19 1065.56C1296.06 1068.18 1296.96 1070.78 1297.87 1073.39C1303.57 1089.93 1308.17 1106.37 1310.75 1123.69C1310.92 1124.84 1310.92 1124.84 1311.1 1126.02C1313.13 1140.98 1313.16 1156.13 1313.13 1171.19C1313.12 1174.05 1313.13 1176.91 1313.14 1179.77C1313.14 1181.6 1313.13 1183.42 1313.13 1185.25C1313.13 1186.1 1313.14 1186.95 1313.14 1187.83C1313.11 1193.77 1313.11 1193.77 1312 1196C1311.74 1197.7 1311.54 1199.4 1311.35 1201.1C1311.23 1202.14 1311.12 1203.18 1311 1204.25C1310.87 1205.37 1310.75 1206.48 1310.62 1207.62C1307.89 1231.33 1307.89 1231.33 1305 1240C1303.91 1243.27 1303.23 1246.5 1302.56 1249.88C1301.46 1255.18 1300.1 1260.01 1298 1265C1297.34 1265 1296.68 1265 1296 1265C1295.67 1267.97 1295.34 1270.94 1295 1274C1294.34 1274 1293.68 1274 1293 1274C1292.94 1275.05 1292.88 1276.1 1292.81 1277.19C1291.87 1284.86 1288.31 1292.03 1285.25 1299.06C1284.25 1301.4 1283.5 1303.52 1283 1306C1282.34 1306 1281.68 1306 1281 1306C1280.65 1307.22 1280.3 1308.43 1279.94 1309.69C1277.79 1316.2 1274.36 1322.05 1271 1328C1270.34 1328 1269.68 1328 1269 1328C1268.77 1328.64 1268.55 1329.28 1268.31 1329.94C1261.22 1346.48 1248.75 1363.89 1235.7 1376.28C1233.7 1378.3 1232 1380.45 1230.25 1382.69C1223.18 1391.65 1215.84 1399.62 1206.85 1406.68C1204.31 1408.75 1201.93 1410.92 1199.57 1413.19C1187.01 1425.21 1172.64 1434.97 1157.78 1443.91C1156.13 1444.92 1154.51 1445.98 1152.89 1447.04C1143.61 1453.07 1133.67 1457.44 1123.56 1461.87C1121.92 1462.6 1120.28 1463.33 1118.65 1464.06C1113.46 1466.41 1108.22 1468.49 1102.87 1470.44C1102.05 1470.74 1101.22 1471.04 1100.36 1471.35C1097.91 1472.24 1095.46 1473.12 1093 1474C1092.34 1474.24 1091.68 1474.48 1091.01 1474.72C1070.63 1482.09 1049.46 1485.42 1028.14 1488.77C1027.44 1488.88 1026.73 1488.99 1026.01 1489.1C1024.01 1489.41 1022 1489.71 1020 1490C1018.73 1490.19 1017.45 1490.37 1016.14 1490.57C1011.31 1491.15 1006.5 1491.16 1001.64 1491.17C1000.66 1491.17 999.672 1491.17 998.657 1491.18C996.576 1491.18 994.495 1491.19 992.414 1491.19C989.301 1491.19 986.188 1491.21 983.074 1491.22C964.636 1491.28 946.835 1489.67 928.75 1486.12C927.354 1485.86 925.959 1485.59 924.563 1485.32C910.976 1482.68 897.977 1479.58 884.989 1474.72C882.763 1473.91 880.523 1473.16 878.277 1472.41C867.111 1468.65 856.504 1464.33 846 1459C845.206 1458.6 844.413 1458.2 843.595 1457.78C834.101 1452.95 824.848 1447.95 816 1442C814.27 1440.85 812.539 1439.71 810.809 1438.56C807.068 1436.08 803.33 1433.6 799.598 1431.11C798.414 1430.32 798.414 1430.32 797.207 1429.51C796.479 1429.01 795.75 1428.51 795 1428C794.245 1427.48 793.49 1426.96 792.713 1426.43C792.147 1425.96 791.582 1425.49 791 1425C791 1424.34 791 1423.68 791 1423C790.453 1422.92 789.907 1422.85 789.344 1422.77C786.122 1421.71 784.09 1419.86 781.5 1417.69C780.562 1416.91 779.623 1416.13 778.656 1415.32C776.329 1413.29 774.074 1411.29 772 1409C772 1408.34 772 1407.68 772 1407C771.421 1406.75 770.842 1406.5 770.246 1406.24C767.717 1404.84 766.066 1403.26 764.062 1401.19C763.414 1400.52 762.766 1399.85 762.098 1399.17C761.405 1398.45 760.713 1397.74 760 1397C757.15 1394.13 754.268 1391.29 751.363 1388.47C743.138 1380.44 735.628 1372.42 729 1363C728.553 1362.37 728.106 1361.74 727.646 1361.09C721.406 1352.28 715.526 1343.28 710 1334C709.39 1332.98 709.39 1332.98 708.768 1331.93C706.182 1327.58 703.617 1323.21 701.072 1318.84C700.187 1317.32 699.292 1315.81 698.394 1314.3C695.675 1309.64 693.796 1304.93 692.031 1299.82C690.676 1296.11 689.034 1292.57 687.344 1289C683.885 1281.28 681 1273.38 678.312 1265.38C678.005 1264.49 677.698 1263.6 677.381 1262.68C676.043 1258.7 674.874 1254.91 674.418 1250.73C674.019 1247.17 673.215 1244.35 672 1241C668.799 1230.62 667.381 1220.6 666.684 1209.78C666.362 1204.87 665.885 1200.14 664.965 1195.31C663.622 1187.64 663.652 1180.01 663.687 1172.25C663.689 1171.47 663.69 1170.7 663.691 1169.9C663.724 1158.43 664.238 1147.05 665.312 1135.63C665.489 1133.72 665.489 1133.72 665.669 1131.78C666.543 1123.36 668.069 1115.25 670 1107C670.66 1107 671.32 1107 672 1107C672.18 1105.57 672.18 1105.57 672.363 1104.11C673.989 1092.81 676.698 1081.4 682.266 1071.4C685.151 1065.74 687.339 1059.77 689.577 1053.83C691.621 1048.61 693.74 1044.56 697.638 1040.51C699.097 1038.89 700.082 1037.28 701.125 1035.38C702.858 1032.26 704.78 1029.78 707 1027C707.516 1025.97 708.031 1024.94 708.562 1023.88C715.149 1012.2 726.436 1005.78 738 1000C748.212 998.541 757.98 998.327 768 1001C769.149 1001.25 769.149 1001.25 770.32 1001.5C780.51 1004.47 789.101 1014.33 794.965 1022.86C796.197 1025.21 797.154 1027.48 798 1030C798.299 1030.82 798.598 1031.64 798.906 1032.48C800.637 1037.65 801.433 1042.63 801.789 1048.07C801.796 1050.01 801.796 1050.01 803 1051C803.256 1052.87 803.509 1054.75 803.747 1056.63C805.006 1065.86 807.439 1071.18 814 1078C819 1084.39 819 1084.39 819 1087C820.918 1087.34 820.918 1087.34 822.875 1087.69C825.086 1088.22 825.086 1088.22 827 1089C828.5 1091.63 828.5 1091.63 829 1094C829.626 1094.06 830.253 1094.12 830.898 1094.18C831.716 1094.27 832.533 1094.35 833.375 1094.44C834.187 1094.52 834.999 1094.6 835.836 1094.68C838 1095 838 1095 840 1096C842.677 1096.1 845.323 1096.14 848 1096.13C849.106 1096.13 849.106 1096.13 850.234 1096.14C854.247 1096.21 854.247 1096.21 858 1095C859.332 1094.9 860.666 1094.82 862 1094.75C867.688 1094.19 872.068 1091.73 877 1089C878.058 1088.5 878.058 1088.5 879.137 1087.98C888.806 1082.88 894.439 1070.22 897.93 1060.38C903.115 1038.18 896.468 1009.98 884.656 990.82C884.084 989.981 884.084 989.981 883.5 989.125C881.132 985.425 879.538 981.634 877.973 977.539C876.992 974.98 875.958 972.455 874.875 969.938C874.563 969.204 874.251 968.471 873.93 967.715C873.113 965.818 873.113 965.818 871 965C870.261 963.085 869.529 961.166 868.844 959.23C868.055 957.145 867.153 955.226 866.125 953.25C863.422 947.967 861.218 942.5 859 937C858.727 936.337 858.455 935.674 858.174 934.99C848.254 910.79 842.242 886.26 842.588 860.001C842.626 857.077 842.629 854.155 842.629 851.23C842.639 849.344 842.65 847.457 842.664 845.57C842.666 844.71 842.668 843.849 842.671 842.963C842.749 837.963 843.456 833.8 845 829C845.467 826.864 845.911 824.724 846.332 822.578C846.695 820.792 846.695 820.792 847.064 818.969C847.56 816.507 848.047 814.043 848.525 811.578C849.935 804.714 851.742 798.635 854.866 792.351C856.293 789.393 857.265 786.373 858.258 783.25C860.359 776.879 862.995 770.749 866.074 764.793C866.879 763.235 867.632 761.651 868.375 760.063C870.158 756.702 872.198 753.626 874.332 750.48C876.076 747.887 877.763 745.263 879.437 742.625C880.028 741.699 880.618 740.774 881.227 739.82C882.388 737.974 883.529 736.115 884.648 734.242C888.385 728.085 892.603 722.923 897.531 717.676C900.457 714.504 903.112 711.174 905.78 707.785C913.512 698.085 921.679 689.016 930.499 680.295C932.202 678.61 933.898 676.917 935.592 675.223C940.719 670.113 945.861 665.075 951.383 660.387C953.056 658.952 954.652 657.454 956.25 655.938C972.987 641.619 998.66 640.979 1016.87 652.738Z" fill="#1C1915"/>
<path d="M965 790C967.386 790.959 968.738 791.591 970.143 793.786C972.932 800.589 975.197 807.509 977.355 814.535C978.937 819.48 980.418 823.121 984 827C985.084 828.506 986.148 830.026 987.187 831.562C987.951 832.678 987.951 832.678 988.73 833.816C990 836 990 836 990.488 838.152C990.895 840.402 990.895 840.402 994 842C994.763 843.625 995.515 845.259 996.172 846.93C997.391 849.977 998.825 852.922 1000.23 855.887C1001 858 1001 858 1001 862C1001.66 862 1002.32 862 1003 862C1009.05 867.86 1015.22 875.446 1019 883C1019 884.32 1019 885.64 1019 887C1019.66 887 1020.32 887 1021 887C1022.33 888.793 1022.33 888.793 1023.81 891.188C1026.24 894.95 1028.79 897.866 1032 901C1033.98 903.389 1035.9 905.821 1037.83 908.258C1040.68 911.865 1043.61 915.416 1046.53 918.969C1047.95 920.708 1049.35 922.457 1050.72 924.232C1055.61 930.508 1060.91 936.095 1066.62 941.625C1071.78 946.615 1076.57 951.501 1080.76 957.334C1082.23 959.314 1083.84 960.879 1085.75 962.438C1088.89 965.068 1091.96 967.748 1095 970.5C1098.16 973.345 1101.32 976.185 1104.5 979C1105.13 979.557 1105.76 980.114 1106.41 980.688C1107.98 982.083 1107.98 982.083 1110 983C1110 983.66 1110 984.32 1110 985C1110.68 985.186 1111.36 985.371 1112.06 985.562C1116.21 987.593 1118.86 990.677 1122 994C1125.65 997.715 1129.42 1001.29 1133.25 1004.81C1134.1 1005.6 1134.1 1005.6 1134.97 1006.4C1138.94 1010.05 1142.94 1013.64 1147 1017.18C1158.49 1027.62 1169.57 1039.94 1178 1053C1178 1053.99 1178 1054.98 1178 1056C1178.66 1056 1179.32 1056 1180 1056C1183.1 1059.9 1185.3 1063.43 1187.14 1068.08C1188.17 1070.37 1189.43 1072.43 1190.75 1074.56C1196.11 1083.36 1201.14 1091.62 1202 1102C1202.88 1104.55 1203.91 1107.02 1204.96 1109.51C1210.16 1121.94 1212.26 1134.58 1213.35 1147.93C1213.43 1148.8 1213.5 1149.67 1213.57 1150.57C1213.66 1151.74 1213.66 1151.74 1213.75 1152.94C1213.95 1155.19 1213.95 1155.19 1215 1158C1215.13 1160.68 1215.19 1163.32 1215.19 1166C1215.19 1167.23 1215.19 1167.23 1215.19 1168.48C1215.11 1175.98 1214.66 1183.45 1214.12 1190.94C1214.05 1192.05 1213.97 1193.16 1213.89 1194.31C1213.32 1201.62 1212.33 1208.78 1211 1216C1210.34 1216 1209.68 1216 1209 1216C1208.89 1217.09 1208.78 1218.19 1208.66 1219.31C1206.69 1234.94 1201.61 1249.31 1194 1263C1192.03 1266.83 1190.14 1270.7 1188.29 1274.6C1185.49 1280.43 1182.86 1285.65 1178.33 1290.35C1176.72 1292.34 1175.93 1294.31 1175 1296.69C1173.2 1301.11 1171.04 1302.41 1167 1305C1165.4 1307.17 1164 1309.42 1162.56 1311.7C1160.6 1314.59 1158.31 1316.86 1155.78 1319.25C1153.92 1321.08 1152.25 1323.01 1150.56 1325C1147.64 1328.38 1144.53 1331.32 1141.11 1334.2C1138.05 1336.81 1135.12 1339.56 1132.18 1342.3C1130 1344 1130 1344 1127.29 1345.04C1126.16 1345.52 1126.16 1345.52 1125 1346C1124.67 1346.99 1124.34 1347.98 1124 1349C1121.81 1350.61 1121.81 1350.61 1119 1352.31C1115.53 1354.44 1112.13 1356.59 1108.81 1358.94C1102.91 1362.9 1096.49 1365.86 1090.1 1368.96C1088.07 1369.97 1086.05 1371.01 1084.04 1372.08C1047.74 1391.17 1000.5 1397.53 960 1392C959.67 1391.67 959.34 1391.34 959 1391C957.643 1390.75 956.276 1390.56 954.906 1390.39C954.049 1390.28 953.192 1390.16 952.31 1390.05C951.382 1389.93 950.455 1389.81 949.5 1389.69C915.105 1384.97 915.105 1384.97 901.516 1376.44C898.768 1374.87 896.157 1374.33 893.092 1373.63C889.397 1372.51 886.374 1370.38 883.187 1368.25C881.795 1367.34 880.4 1366.44 879.004 1365.54C877.989 1364.88 877.989 1364.88 876.954 1364.22C873.439 1362.03 869.751 1360.18 866.039 1358.35C864 1357 864 1357 862.961 1354.9C862.485 1353.96 862.485 1353.96 862 1353C860.099 1352.39 860.099 1352.39 858 1352C851.906 1348.09 846.654 1342.92 841.388 1337.99C838.571 1335.36 835.727 1333 832.562 1330.81C829.015 1328.3 827.123 1325.46 825.105 1321.64C824.017 1319.67 824.017 1319.67 821 1319C819.527 1317.57 819.527 1317.57 817.937 1315.69C817.326 1314.97 816.715 1314.24 816.086 1313.5C815.398 1312.68 814.709 1311.85 814 1311C812.813 1309.61 812.813 1309.61 811.602 1308.19C803.285 1298.36 796.031 1288.73 790.543 1277.07C789.212 1274.42 787.802 1272.32 786 1270C785.254 1268.31 784.511 1266.62 783.816 1264.91C782.969 1262.93 782.003 1261.04 781 1259.12C779.281 1255.73 778.046 1252.35 776.91 1248.71C775.987 1245.96 774.928 1243.28 773.854 1240.58C770.45 1231.92 768.223 1223.28 766.438 1214.16C766.03 1212.15 765.562 1210.15 765.09 1208.15C762.465 1196.35 762.059 1184.05 763 1172C763.33 1171.67 763.66 1171.34 764 1171C769.346 1171.51 774.106 1172.11 778 1176C779.983 1176.8 781.993 1177.46 784.027 1178.12C786 1179 786 1179 787.363 1180.41C800.93 1193.56 831.705 1195.49 849.601 1195.29C886.314 1194.24 919.69 1182.86 947.465 1158.34C948.748 1157.22 950.071 1156.15 951.402 1155.09C958.54 1149.35 963.95 1141.57 969 1134C969.99 1133.67 970.98 1133.34 972 1133C973.358 1130.66 974.542 1128.38 975.687 1125.94C976.396 1124.46 977.106 1122.99 977.816 1121.51C978.177 1120.76 978.539 1120 978.911 1119.22C979.927 1117.15 980.992 1115.11 982.09 1113.08C994.281 1090.33 998.061 1065.57 997 1040C996.936 1038.42 996.936 1038.42 996.871 1036.81C995.734 1011.93 991.201 987.851 981.25 964.934C979.906 961.778 978.7 958.588 977.5 955.375C975.618 950.421 973.478 945.714 971.016 941.023C970 939 970 939 969 936C968.01 935.34 967.02 934.68 966 934C965.257 932.082 964.522 930.159 963.848 928.215C962.175 923.845 959.62 919.919 957.229 915.912C954.754 911.661 953.152 907.789 952 903C951.34 903 950.68 903 950 903C949.746 902.105 949.492 901.211 949.23 900.289C948.886 899.08 948.542 897.871 948.187 896.625C948.007 895.988 947.826 895.351 947.639 894.695C946.577 890.969 945.467 887.261 944.312 883.562C943.135 879.707 942.51 875.992 942 872C941.67 871.67 941.34 871.34 941 871C938.928 849.579 940.697 827.715 954 810C954.523 808.683 955.007 807.35 955.437 806C956.757 802.078 958.854 799.62 961.637 796.609C963.353 794.584 964.234 792.529 965 790Z" fill="#FADB50"/>
</g>
<defs>
<clipPath id="clip0_2_3">
<rect width="2096" height="2160" fill="white"/>
</clipPath>
</defs>
</svg>
