<svg width="1254" height="1254" viewBox="0 0 1254 1254" fill="none" xmlns="http://www.w3.org/2000/svg">
<g clip-path="url(#clip0_4_17)">
<path d="M0 631.702C0 285.42 276.015 0 622.298 0C968.58 0 1254 276.015 1254 622.298C1254 968.58 977.985 1254 631.702 1254C285.42 1254 0 977.985 0 631.702Z" fill="#FBD547"/>
<path d="M648.406 359.246C658.693 366.202 661.546 377.678 664.285 389.248C672.152 421.669 687.233 451.013 708 477C708.465 477.582 708.929 478.163 709.408 478.763C720.334 492.282 732.785 504.724 746 516C746.581 516.498 747.162 516.995 747.761 517.508C748.881 518.465 750.001 519.42 751.123 520.374C769.843 536.311 769.843 536.311 776.145 543.84C777.533 545.456 778.978 547.025 780.449 548.566C806.093 575.454 822.079 609.513 828 646C828.206 647.106 828.412 648.212 828.625 649.352C836.66 697.896 821.248 750.448 793.121 790.094C787.098 798.409 780.593 806.134 773.448 813.505C772.04 814.959 770.649 816.428 769.258 817.898C762.69 824.695 755.652 830.503 748 836C747.46 836.395 746.92 836.79 746.363 837.197C716.535 858.843 678.85 873.784 641.727 874.273C640.854 874.286 639.981 874.299 639.082 874.312C604.523 874.716 571.558 870.209 540.832 853.022C538.892 851.94 536.934 850.895 534.973 849.852C488.79 824.968 453.925 781.935 438.625 731.812C434.427 717.393 430.856 702.028 430.832 686.969C430.829 686.215 430.825 685.462 430.822 684.685C430.817 683.095 430.815 681.505 430.815 679.915C430.812 677.534 430.794 675.154 430.775 672.773C430.727 659.885 431.727 647.308 435.125 634.812C435.337 634.027 435.55 633.241 435.769 632.432C441.89 610.736 451.937 586.198 471.062 572.75C475.543 570.583 480.168 570.523 485.062 570.438C485.819 570.422 486.575 570.407 487.354 570.392C495.811 570.55 501.939 574.352 508 580C513.35 585.809 514.981 591.145 515.937 598.812C517.27 608.949 520.108 617.155 528 624C536.063 629.835 544.17 630.089 553.769 628.559C561.096 626.769 566.459 622.97 570.535 616.602C577.483 603.435 577.126 591.163 573 577C569.561 567.305 564.62 558.268 559.777 549.224C551.846 534.314 544.703 518.782 542 502C541.735 500.395 541.735 500.395 541.465 498.758C537.036 462.958 551.401 429.824 573 402C573.443 401.428 573.887 400.857 574.343 400.268C619.617 342.92 619.617 342.92 648.406 359.246Z" fill="#1D1D1C"/>
<path d="M618 442C618.66 442 619.32 442 620 442C620.33 442.76 620.33 442.76 620.667 443.534C627.975 460.251 635.652 476.912 646 492C646.425 492.626 646.85 493.252 647.288 493.896C654.007 503.757 661.116 513.048 669 522C669.612 522.712 670.225 523.423 670.855 524.156C672.551 526.122 674.272 528.063 676 530C676.773 530.878 677.547 531.756 678.344 532.66C688.108 543.559 698.702 553.457 710.125 562.602C715.714 567.264 720.97 572.291 726.232 577.316C727.818 578.826 729.415 580.322 731.016 581.816C746.487 596.647 758.253 615.673 765 636C765.243 636.7 765.485 637.4 765.735 638.121C773.301 660.81 772.947 689.27 765.649 711.965C765.05 713.845 764.532 715.75 764.023 717.656C758.25 738.74 744.584 757.098 730 773C729.339 773.744 728.677 774.488 727.996 775.254C715.582 788.526 698.534 797.965 682 805C681.274 805.347 680.548 805.694 679.801 806.051C655.282 817.133 619.507 817.972 594 810C593.223 809.759 592.446 809.517 591.645 809.269C568.618 801.878 549.329 789.705 532 773C531.035 772.112 531.035 772.112 530.051 771.207C520.19 761.898 513.273 750.577 506.937 738.721C505.774 736.586 504.508 734.518 503.25 732.438C494.073 715.592 489.628 693.027 491 674C494.528 675.298 497.74 676.922 501.011 678.767C521.011 689.983 544.286 693.696 566.746 687.969C567.82 687.649 568.894 687.329 570 687C571.146 686.66 572.292 686.319 573.473 685.969C596.297 678.487 614.696 663.269 626 642C628.308 637.086 630.25 632.136 632 627C632.415 625.814 632.83 624.628 633.258 623.406C638.356 606.437 637.676 586.99 633 570C632.582 568.293 632.582 568.293 632.156 566.551C628.116 550.998 620.655 537.081 613.063 523.019C603.619 505.251 597.851 485.608 603.937 465.688C606.763 457.149 611.614 448.386 618 442Z" fill="#FBD447"/>
</g>
<defs>
<clipPath id="clip0_4_17">
<rect width="1254" height="1254" fill="white"/>
</clipPath>
</defs>
</svg>
