<svg width="2120" height="2087" viewBox="0 0 2120 2087" fill="none" xmlns="http://www.w3.org/2000/svg">
<g clip-path="url(#clip0_2_3)">
<rect y="21.5649" width="2097.93" height="2064.84" rx="200" transform="rotate(-0.588961 0 21.5649)" fill="black" fill-opacity="0.01"/>
<path d="M-135.954 -170.513C639.131 -178.681 1414.22 -186.849 2212.79 -195.265C2220.79 603.087 2228.8 1401.44 2237.05 2223.98C1461.96 2232.15 686.877 2240.32 -111.695 2248.74C-119.701 1450.38 -127.706 652.032 -135.954 -170.513Z" fill="#FCDC4F"/>
<path d="M964.638 103.298C966.321 103.28 968.005 103.261 969.688 103.243C973.194 103.205 976.7 103.171 980.205 103.14C984.641 103.1 989.076 103.051 993.511 103C996.982 102.96 1000.45 102.926 1003.92 102.893C1005.56 102.877 1007.19 102.859 1008.82 102.84C1020.53 102.707 1032.17 103.001 1043.86 103.566C1044.96 103.618 1046.07 103.67 1047.21 103.723C1077.43 105.189 1107.99 107.771 1137.84 112.571C1140.9 113.059 1143.96 113.526 1147.03 113.987C1164.39 116.603 1181.62 119.562 1198.79 123.203C1202.45 123.974 1206.11 124.719 1209.78 125.462C1224.34 128.442 1238.63 131.856 1252.86 136.027C1256.79 137.165 1260.74 138.236 1264.69 139.297C1265.73 139.576 1265.73 139.576 1266.79 139.862C1270.68 140.905 1274.58 141.901 1278.49 142.86C1289.49 145.581 1300.07 149.469 1310.72 153.207C1312.78 153.93 1314.84 154.651 1316.91 155.371C1317.58 155.604 1318.24 155.838 1318.93 156.079C1322.94 157.466 1326.96 158.743 1331.03 159.946C1334.77 161.068 1338.31 162.344 1341.88 163.893C1346.76 165.98 1351.68 167.932 1356.63 169.842C1370.91 175.345 1384.94 181.287 1398.93 187.416C1401.72 188.635 1404.52 189.839 1407.33 191.034C1418.6 195.87 1429.51 201.274 1440.37 206.911C1443.41 208.488 1446.46 210.053 1449.51 211.618C1463.78 218.968 1477.8 226.659 1491.64 234.715C1492.58 235.262 1493.52 235.81 1494.49 236.374C1507.53 243.981 1520.32 251.89 1532.94 260.102C1533.65 260.56 1534.36 261.018 1535.09 261.489C1547.43 269.453 1559.38 277.895 1571.25 286.476C1572.26 287.204 1572.26 287.204 1573.29 287.946C1591.57 301.161 1609.28 315.079 1626.34 329.703C1628.45 331.502 1630.59 333.269 1632.75 335.018C1643.64 343.905 1653.96 353.292 1664.17 362.877C1666.47 365.034 1668.78 367.186 1671.08 369.337C1672.57 370.73 1674.06 372.123 1675.55 373.516C1676.22 374.148 1676.9 374.779 1677.6 375.43C1681.5 379.099 1685.23 382.87 1688.84 386.8C1691.28 389.437 1693.82 391.982 1696.36 394.532C1699.96 398.165 1703.53 401.82 1707.04 405.536C1714.47 413.285 1722.33 420.753 1730.78 427.485C1734.47 430.461 1738.04 433.571 1741.62 436.663C1743.71 438.462 1745.8 440.252 1747.9 442.038C1756.34 449.228 1764.47 456.697 1772.54 464.266C1774.69 466.278 1776.83 468.284 1778.99 470.29C1780.38 471.592 1781.77 472.895 1783.16 474.198C1783.79 474.785 1784.42 475.372 1785.07 475.977C1788.86 479.541 1792.46 483.218 1795.97 487.032C1798.3 489.544 1800.7 491.974 1803.11 494.412C1813.65 505.134 1823.73 516.258 1833.56 527.578C1835.36 529.656 1837.18 531.725 1839.01 533.788C1846.91 542.745 1854.37 551.962 1861.66 561.373C1863.26 563.429 1864.88 565.475 1866.49 567.518C1877.15 581.035 1887.02 595.076 1896.88 609.124C1897.56 610.089 1898.24 611.054 1898.94 612.049C1908.65 625.951 1917.61 640.246 1926.38 654.708C1926.85 655.482 1927.32 656.255 1927.81 657.052C1938.89 675.219 1949.15 693.888 1959.01 712.689C1959.51 713.655 1959.51 713.655 1960.03 714.641C1969.54 732.749 1978.3 751.318 1985.72 770.301C1986.92 773.328 1988.17 776.34 1989.41 779.352C1989.92 780.586 1990.43 781.82 1990.94 783.054C1991.7 784.902 1992.47 786.75 1993.24 788.596C1995.86 794.914 1998.33 801.199 2000.35 807.714C2001.09 810.018 2001.09 810.018 2002.59 813.102C2004.5 817.275 2005.79 821.521 2007.09 825.898C2008.89 831.901 2010.79 837.86 2012.83 843.794C2015.4 851.322 2017.76 858.896 2020.02 866.515C2020.32 867.521 2020.32 867.521 2020.62 868.547C2033.73 912.972 2044.97 960.116 2047.91 1006.3C2048.02 1008.21 2048.02 1008.21 2049.15 1010.03C2049.37 1011.37 2049.54 1012.71 2049.68 1014.05C2049.77 1014.88 2049.86 1015.71 2049.96 1016.56C2050.05 1017.47 2050.14 1018.37 2050.24 1019.3C2050.38 1020.71 2050.38 1020.71 2050.53 1022.15C2051.54 1032.35 2052.19 1042.55 2052.71 1052.78C2052.77 1053.78 2052.82 1054.79 2052.87 1055.83C2054.98 1098.18 2054.86 1140.09 2051.17 1182.35C2050.96 1184.78 2050.76 1187.21 2050.56 1189.64C2049.5 1202.44 2048.18 1215.14 2046.06 1227.82C2045.4 1231.83 2044.97 1235.84 2044.57 1239.88C2043.66 1248.41 2042.09 1256.78 2040.4 1265.2C2039.74 1268.51 2039.1 1271.83 2038.46 1275.16C2032.37 1306.59 2025.06 1338.03 2014.6 1368.42C2013.09 1373 2011.85 1377.65 2010.65 1382.31C2009.49 1386.7 2007.9 1390.8 2006.15 1395C2003.69 1401.17 2001.75 1407.52 1999.69 1413.82C1997.28 1421.07 1994.51 1428.07 1991.46 1435.09C1990.5 1437.37 1989.54 1439.65 1988.59 1441.93C1987.84 1443.71 1987.09 1445.49 1986.35 1447.27C1985.84 1448.47 1985.34 1449.67 1984.84 1450.87C1981.97 1457.73 1979.04 1464.55 1975.87 1471.28C1974.9 1473.35 1973.97 1475.43 1973.06 1477.52C1969.55 1485.31 1965.47 1492.87 1961.54 1500.48C1961.11 1501.31 1960.69 1502.13 1960.25 1502.99C1959.89 1503.68 1959.52 1504.38 1959.15 1505.1C1958.12 1507.15 1958.12 1507.15 1957.27 1509.39C1956.28 1511.77 1955.15 1513.95 1953.86 1516.2C1953.41 1516.99 1952.96 1517.79 1952.49 1518.61C1952.02 1519.44 1951.54 1520.27 1951.05 1521.13C1947.48 1527.4 1944.04 1533.7 1940.81 1540.14C1936.84 1547.94 1932.34 1555.44 1927.71 1562.89C1926.65 1564.62 1925.59 1566.34 1924.54 1568.07C1922.65 1571.16 1920.75 1574.24 1918.85 1577.32C1918.22 1578.34 1917.59 1579.37 1916.94 1580.42C1907.99 1594.83 1898.15 1608.72 1888.28 1622.57C1887.8 1623.25 1887.31 1623.93 1886.82 1624.63C1880.3 1633.76 1873.59 1642.69 1866.56 1651.47C1865.34 1653.02 1864.12 1654.57 1862.91 1656.11C1860.84 1658.75 1858.76 1661.37 1856.68 1664C1856.25 1664.54 1855.82 1665.09 1855.38 1665.65C1849.82 1672.66 1844.12 1679.5 1838.16 1686.21C1835.33 1689.4 1832.58 1692.62 1829.91 1695.94C1826.2 1700.52 1822.2 1704.82 1818.12 1709.09C1816.31 1710.98 1814.52 1712.88 1812.75 1714.8C1803.56 1724.68 1793.85 1734.09 1784.16 1743.52C1781.68 1745.93 1779.21 1748.34 1776.73 1750.76C1774.8 1752.64 1772.87 1754.53 1770.93 1756.42C1769.58 1757.73 1768.23 1759.05 1766.88 1760.36C1762.49 1764.63 1758.04 1768.76 1753.32 1772.7C1751.24 1774.46 1749.33 1776.35 1747.43 1778.29C1743.4 1782.28 1739.09 1785.79 1734.6 1789.3C1731.95 1791.4 1729.42 1793.59 1726.9 1795.83C1689.37 1829.09 1645.78 1857.99 1602.05 1883.25C1599.8 1884.55 1597.55 1885.85 1595.31 1887.16C1554.06 1911.14 1510.9 1932.1 1466.16 1949.44C1465.44 1949.72 1464.72 1950 1463.98 1950.29C1453.43 1954.38 1442.86 1958.37 1432.2 1962.16C1430.28 1962.85 1428.37 1963.56 1426.46 1964.28C1421.87 1965.98 1417.22 1967.52 1412.56 1969.05C1411.65 1969.35 1410.73 1969.65 1409.78 1969.96C1406.99 1970.87 1404.2 1971.78 1401.4 1972.69C1400.6 1972.95 1399.81 1973.21 1398.99 1973.47C1368.2 1983.42 1336.52 1991.8 1304.69 1998.13C1302.36 1998.6 1300.04 1999.11 1297.72 1999.62C1289.65 2001.38 1281.64 2002.96 1273.44 2004.07C1270.57 2004.49 1267.74 2004.97 1264.9 2005.51C1250.89 2008.16 1236.87 2009.95 1222.7 2011.52C1221.94 2011.6 1221.18 2011.69 1220.39 2011.77C1218.96 2011.93 1217.53 2012.09 1216.1 2012.24C1212.55 2012.63 1209.12 2013.19 1205.63 2013.9C1203.82 2014.09 1202.01 2014.26 1200.19 2014.4C1199.11 2014.48 1198.03 2014.57 1196.92 2014.66C1195.79 2014.74 1194.67 2014.83 1193.51 2014.92C1191.34 2015.09 1189.17 2015.26 1187 2015.43C1185.1 2015.57 1185.1 2015.57 1183.16 2015.72C1179.77 2015.98 1176.39 2016.3 1173 2016.63C1154.98 2018.31 1137.05 2018.72 1118.96 2018.86C1114.88 2018.89 1110.79 2018.94 1106.71 2018.99C1076.65 2019.37 1046.84 2018.26 1016.91 2015.54C1015.87 2015.45 1014.83 2015.35 1013.75 2015.26C955.522 2010.03 895.801 2000.62 839.946 1983.82C832.62 1981.62 825.238 1979.59 817.864 1977.54C812.866 1976.14 807.92 1974.7 803.043 1972.96C800.11 1971.92 797.154 1970.96 794.197 1970C786.784 1967.56 779.417 1965.01 772.059 1962.43C770.221 1961.79 770.221 1961.79 768.347 1961.13C760.687 1958.45 753.107 1955.62 745.558 1952.66C743.574 1951.9 741.591 1951.14 739.607 1950.38C723.534 1944.17 707.577 1937.64 692.085 1930.2C689.538 1928.99 686.973 1927.81 684.409 1926.63C667.067 1918.64 650.235 1909.97 633.545 1900.79C630.231 1898.99 626.888 1897.23 623.539 1895.48C615.5 1891.22 607.716 1886.57 599.921 1881.91C597.912 1880.71 595.9 1879.52 593.885 1878.33C551.829 1853.42 511.817 1824.61 475.076 1792.97C472.272 1790.56 469.45 1788.17 466.573 1785.84C455.59 1776.9 445.193 1767.44 434.889 1757.79C432.54 1755.6 430.183 1753.41 427.826 1751.22C420.788 1744.66 413.945 1738.14 407.779 1730.81C404.981 1727.51 401.939 1724.46 398.845 1721.41C397.892 1720.47 397.892 1720.47 396.92 1719.5C381.926 1704.63 381.926 1704.63 365.506 1691.25C361.958 1688.52 358.605 1685.64 355.257 1682.7C354.559 1682.08 353.861 1681.47 353.142 1680.84C345.121 1673.75 337.304 1666.46 329.508 1659.15C327.024 1656.82 324.535 1654.49 322.046 1652.17C320.438 1650.67 318.83 1649.16 317.223 1647.66C316.492 1646.97 315.762 1646.29 315.009 1645.59C310.419 1641.28 306.079 1636.81 301.834 1632.19C300.363 1630.64 298.888 1629.1 297.408 1627.57C296.636 1626.77 295.863 1625.97 295.068 1625.14C293.553 1623.57 292.036 1622.01 290.515 1620.45C281.863 1611.53 273.579 1602.35 265.663 1592.83C262.624 1589.18 259.523 1585.58 256.382 1582.01C250.693 1575.54 245.304 1568.95 240.175 1562.06C238.877 1560.35 237.539 1558.67 236.132 1557.04C233.015 1553.36 230.179 1549.51 227.311 1545.66C226.685 1544.82 226.06 1543.98 225.415 1543.12C223.528 1540.59 221.645 1538.05 219.762 1535.52C219.222 1534.79 218.682 1534.07 218.125 1533.32C210.185 1522.64 202.669 1511.76 195.388 1500.65C194.121 1498.73 192.846 1496.8 191.559 1494.89C176.287 1472.07 162.16 1448.41 149.44 1424.21C147.879 1421.25 146.29 1418.3 144.705 1415.36C144.124 1414.27 143.544 1413.19 142.947 1412.07C142.033 1410.37 141.114 1408.68 140.181 1406.99C137.907 1402.87 136.021 1398.68 134.256 1394.33C133.245 1391.99 133.245 1391.99 131.687 1389.76C129.988 1387.04 129.03 1384.42 128.027 1381.41C126.74 1377.28 126.74 1377.28 124.01 1373.98C123.524 1372.39 123.043 1370.79 122.584 1369.19C121.917 1367.25 121.054 1365.6 120.026 1363.81C117.73 1359.71 116.285 1355.46 114.757 1351.06C113.895 1348.71 112.945 1346.53 111.818 1344.29C109.371 1339.39 107.528 1334.29 105.638 1329.18C104.218 1325.31 104.218 1325.31 102.396 1321.61C101.21 1319.29 100.661 1316.9 100.013 1314.41C98.6171 1309.54 96.7325 1304.82 94.9723 1300.07C91.6513 1291 88.6246 1281.91 85.9646 1272.65C84.4935 1267.53 82.9036 1262.47 81.1459 1257.43C76.4988 1244.01 73.3058 1230.19 69.9328 1216.44C69.3822 1214.22 68.8149 1212 68.2378 1209.79C64.9706 1197.1 62.7296 1184.23 60.4176 1171.36C59.9441 1168.76 59.454 1166.16 58.9415 1163.56C56.7934 1152.63 55.2825 1141.61 53.7987 1130.58C53.6646 1129.59 53.6646 1129.59 53.5278 1128.59C53.2816 1126.79 53.0395 1124.98 52.7976 1123.17C52.4982 1120.48 52.4982 1120.48 51.3153 1118.52C51.1315 1117.12 51.001 1115.71 50.8986 1114.31C50.8328 1113.43 50.767 1112.56 50.6992 1111.66C50.6321 1110.71 50.5649 1109.76 50.4958 1108.78C50.4229 1107.81 50.35 1106.83 50.2749 1105.83C50.0414 1102.7 49.8137 1099.56 49.5868 1096.43C49.3595 1093.32 49.1309 1090.21 48.8993 1087.1C48.7553 1085.16 48.6138 1083.22 48.4752 1081.29C48.3762 1079.95 48.3762 1079.95 48.2753 1078.58C48.2192 1077.81 48.1631 1077.03 48.1053 1076.24C47.9003 1074.13 47.6119 1072.04 47.2973 1069.95C46.7601 1066.23 46.6093 1062.58 46.5682 1058.82C46.5595 1058.15 46.5508 1057.47 46.5419 1056.78C46.5148 1054.57 46.495 1052.36 46.4756 1050.15C46.4588 1048.58 46.4417 1047.01 46.4243 1045.44C46.3889 1042.14 46.3571 1038.84 46.3279 1035.54C46.291 1031.41 46.2453 1027.27 46.1969 1023.13C45.9069 997.864 45.764 972.576 47.7464 947.356C47.9114 945.237 48.0601 943.117 48.2079 940.996C48.7934 933.034 49.7858 925.223 51.1516 917.348C52.3309 910.469 53.0085 903.596 53.6015 896.648C54.7564 883.206 54.7564 883.206 56.3692 876.592C57.0964 873.494 57.4882 870.35 57.9283 867.206C61.6918 841.835 66.6789 816.32 74.0315 791.666C75.0005 788.279 75.8174 784.877 76.6284 781.452C78.5044 773.688 81.0031 766.126 83.5115 758.53C85.8493 751.423 88.0017 744.284 90.061 737.099C93.2875 725.924 97.0732 715.136 102.055 704.554C103.784 700.504 105.196 696.347 106.622 692.192C108.361 687.188 110.374 682.321 112.469 677.444C113.889 674.123 115.272 670.79 116.649 667.453C117.389 665.672 118.128 663.892 118.868 662.112C119.366 660.914 119.861 659.714 120.353 658.514C123.241 651.487 126.305 644.73 130.176 638.142C131.409 635.927 132.367 633.729 133.267 631.376C135.695 625.172 138.795 619.298 141.894 613.381C142.824 611.602 143.75 609.821 144.674 608.038C152.356 593.21 160.452 578.699 169.17 564.402C170.578 562.086 171.969 559.761 173.352 557.43C178.972 547.964 184.873 538.681 190.917 529.456C192.324 527.308 193.724 525.156 195.125 523.004C201.472 513.291 208.176 503.852 215.066 494.485C216.116 493.049 217.166 491.613 218.216 490.176C225.519 480.22 233.047 470.442 240.745 460.761C241.221 460.159 241.698 459.558 242.188 458.939C247.919 451.713 253.817 444.652 259.909 437.702C262.308 434.96 264.632 432.167 266.948 429.362C271.026 424.472 275.354 419.84 279.753 415.215C281.83 413.02 283.869 410.806 285.878 408.554C292.019 401.668 298.269 394.965 304.945 388.547C306.908 386.604 308.752 384.612 310.572 382.548C315.159 377.353 320.059 372.506 325.438 368.055C330.479 363.857 335.043 359.191 339.647 354.564C340.271 353.944 340.895 353.325 341.538 352.687C342.38 351.841 342.38 351.841 343.24 350.978C344.706 349.752 344.706 349.752 346.708 349.732C346.701 349.101 346.695 348.47 346.688 347.82C348.188 346.513 349.753 345.275 351.342 344.068C355.756 340.629 359.945 337.067 364.056 333.302C369.639 328.21 375.429 323.432 381.424 318.783C382.955 317.593 384.486 316.402 386.017 315.211C386.823 314.585 387.629 313.959 388.46 313.315C390.738 311.519 392.993 309.706 395.239 307.875C402.785 301.733 410.379 295.816 418.449 290.316C422.853 287.311 427.149 284.17 431.46 281.045C439.815 275.009 448.306 269.194 456.93 263.515C457.533 263.115 458.137 262.716 458.759 262.304C512.083 227.018 570.047 196.207 630.167 172.827C631.254 172.402 632.341 171.978 633.462 171.541C648.874 165.547 664.3 159.785 680.089 154.743C683.079 153.787 686.034 152.789 688.968 151.683C713.333 142.517 738.949 136.187 764.296 130.041C765.315 129.794 765.315 129.794 766.354 129.542C779.244 126.425 792.154 123.543 805.246 121.315C811.7 120.198 818.132 119.046 824.54 117.711C839.538 114.62 854.749 112.547 869.949 110.612C870.813 110.501 871.676 110.391 872.566 110.277C891.396 107.885 910.279 106.252 929.219 104.908C931.153 104.764 933.086 104.606 935.019 104.442C944.904 103.636 954.723 103.386 964.638 103.298ZM941.162 142.862C939.666 143.002 938.168 143.124 936.668 143.219C935.852 143.273 935.037 143.326 934.197 143.381C932.899 143.463 932.899 143.463 931.574 143.547C929.67 143.673 927.766 143.8 925.861 143.928C924.373 144.027 924.373 144.027 922.855 144.129C897.66 145.831 872.67 148.115 847.891 152.965C840.497 154.41 833.071 155.48 825.593 156.441C820.319 157.135 815.334 158.134 810.206 159.504C803.475 161.143 796.745 162.612 789.918 163.835C778.9 165.842 768.1 168.727 757.277 171.52C756.568 171.701 755.86 171.882 755.129 172.069C751.527 172.989 747.937 173.943 744.355 174.932C742.891 175.336 741.426 175.736 739.96 176.134C708.913 184.614 678.456 195.474 648.536 207.054C647.605 207.414 647.605 207.414 646.656 207.781C607.703 222.911 568.67 241.142 533.026 262.504C530.773 263.848 528.505 265.167 526.235 266.485C506.109 278.178 486.592 290.575 467.351 303.56C466.65 304.033 465.95 304.506 465.227 304.993C454.065 312.563 443.329 320.685 432.576 328.773C431.889 329.29 431.201 329.807 430.493 330.34C423.111 335.905 415.916 341.641 408.832 347.547C406.011 349.894 403.135 352.17 400.246 354.44C395.211 358.434 390.451 362.663 385.7 366.957C383.445 368.986 381.169 370.979 378.852 372.943C365.022 384.669 351.712 396.907 338.751 409.504C337.926 410.304 337.101 411.104 336.251 411.928C332.023 416.06 327.953 420.26 324.057 424.679C322.543 426.381 320.993 428.037 319.412 429.681C318.943 430.171 318.474 430.66 317.991 431.164C317.034 432.157 316.074 433.148 315.112 434.136C312.406 436.641 312.406 436.641 311.6 439.957C310.613 440.282 309.625 440.608 308.607 440.943C306.65 442.976 306.65 442.976 304.651 445.525C303.866 446.484 303.081 447.444 302.272 448.432C301.855 448.942 301.438 449.453 301.009 449.978C298.812 452.632 296.537 455.224 294.267 457.821C286.349 466.917 278.694 476.174 271.283 485.652C270.088 487.173 268.882 488.686 267.675 490.198C260.655 499.006 253.968 508.025 247.33 517.097C246.797 517.824 246.263 518.551 245.714 519.3C244.151 521.432 242.593 523.569 241.037 525.706C240.58 526.331 240.122 526.956 239.651 527.599C236.389 532.1 233.34 536.709 230.33 541.367C228.696 543.891 227.043 546.403 225.381 548.912C217.452 560.929 209.936 573.128 202.662 585.516C201.072 588.222 199.473 590.922 197.872 593.622C191.42 604.538 185.281 615.578 179.39 626.779C178.863 627.77 178.337 628.762 177.794 629.783C176.007 633.199 174.374 636.553 173.084 640.168C171.928 643.385 170.384 646.253 168.673 649.236C166.321 653.349 164.428 657.438 162.722 661.826C160.555 667.26 157.957 672.534 155.414 677.817C150.42 688.25 146.363 698.912 142.515 709.773C141.515 712.471 140.459 715.123 139.356 717.782C137.302 722.793 135.563 727.873 133.874 733.004C130.706 742.584 130.706 742.584 129.069 746.732C127.184 751.602 125.788 756.6 124.346 761.603C123.795 763.499 123.244 765.396 122.692 767.292C122.399 768.305 122.106 769.318 121.804 770.362C120.95 773.279 120.072 776.189 119.19 779.098C115.744 790.532 112.717 802.063 109.741 813.616C109.464 814.69 109.187 815.764 108.901 816.871C104.821 832.769 101.36 848.528 99.1685 864.765C98.2037 871.79 96.9753 878.747 95.5298 885.697C86.1854 932.272 85.6592 980.103 86.1629 1027.34C86.1709 1028.11 86.1788 1028.87 86.187 1029.65C86.4201 1062.91 86.4201 1062.91 89.9337 1095.96C90.2217 1097.84 90.5096 1099.72 90.7955 1101.6C90.9923 1102.9 91.1901 1104.19 91.389 1105.49C92.4205 1112.22 93.3321 1118.98 94.2413 1125.73C95.9189 1138.17 97.7077 1150.58 99.8189 1162.96C99.9894 1163.97 100.16 1164.98 100.336 1166.02C100.888 1169.27 101.45 1172.53 102.015 1175.78C102.275 1177.3 102.275 1177.3 102.539 1178.85C103.38 1183.61 104.394 1187.98 106.129 1192.53C106.649 1194.82 107.128 1197.13 107.576 1199.44C110.046 1211.77 113.049 1223.89 116.795 1235.92C118.477 1241.37 119.815 1246.83 120.985 1252.4C121.764 1255.36 122.842 1258.1 124.028 1260.94C125.678 1265.13 126.915 1269.44 128.234 1273.74C130.655 1281.49 133.173 1289.19 135.916 1296.84C136.198 1297.63 136.479 1298.43 136.769 1299.24C138.42 1303.79 140.332 1308.13 142.466 1312.49C143.847 1315.42 144.924 1318.43 145.992 1321.47C146.207 1322.08 146.422 1322.69 146.644 1323.32C147.29 1325.14 147.93 1326.97 148.569 1328.8C150.739 1334.96 153.004 1340.94 155.762 1346.89C157.516 1351.32 159.216 1355.77 160.904 1360.22C161.565 1360.21 162.225 1360.21 162.906 1360.2C163.033 1360.72 163.159 1361.25 163.29 1361.79C167.665 1376.61 176.818 1390.93 184.206 1404.54C186.252 1408.32 188.264 1412.07 190.056 1415.97C191.993 1420.16 194.273 1424.13 196.574 1428.15C197.455 1429.69 198.335 1431.23 199.214 1432.78C199.638 1433.52 200.062 1434.26 200.5 1435.03C201.704 1437.18 202.841 1439.36 203.973 1441.55C205.407 1444.88 205.407 1444.88 207.829 1445.78C208.699 1447.53 208.699 1447.53 209.495 1449.64C209.763 1450.34 210.03 1451.04 210.306 1451.76C210.506 1452.3 210.705 1452.84 210.91 1453.39C211.57 1453.39 212.231 1453.38 212.911 1453.37C213.311 1454.39 213.311 1454.39 213.719 1455.43C215.033 1458.28 216.622 1460.66 218.456 1463.23C221.181 1467.16 223.324 1470.87 225.148 1475.23C225.815 1476.51 226.488 1477.78 227.189 1479.04C227.85 1479.03 228.51 1479.02 229.191 1479.02C229.594 1479.8 229.594 1479.8 230.005 1480.6C235.387 1490.35 242.325 1499.39 248.851 1508.47C249.747 1509.71 249.747 1509.71 250.661 1510.98C251.469 1512.1 251.469 1512.1 252.293 1513.24C253.585 1515.09 253.585 1515.09 254.605 1517C255.266 1516.99 255.927 1516.98 256.607 1516.97C256.892 1517.53 257.176 1518.09 257.469 1518.66C258.585 1520.66 259.799 1522.44 261.191 1524.28C261.686 1524.93 262.182 1525.59 262.693 1526.27C263.485 1527.31 263.485 1527.31 264.294 1528.37C264.843 1529.09 265.392 1529.81 265.957 1530.56C270.519 1536.54 275.19 1542.44 279.951 1548.28C280.985 1549.56 282.019 1550.85 283.053 1552.13C289.065 1559.57 295.205 1566.84 301.701 1573.9C304.07 1576.5 306.358 1579.14 308.636 1581.81C313.569 1587.48 318.922 1592.76 324.275 1598.07C327.249 1601.02 330.134 1604.04 332.971 1607.11C338.162 1612.72 343.467 1618.19 349.118 1623.38C350.902 1625.08 352.563 1626.85 354.224 1628.66C360.057 1634.97 366.404 1640.69 373.148 1646.1C375.044 1647.67 376.826 1649.3 378.602 1650.99C381.598 1653.84 384.732 1656.47 387.96 1659.07C391.489 1661.95 394.934 1664.92 398.389 1667.88C404.601 1673.13 410.936 1678.21 417.408 1683.16C418.92 1684.32 420.432 1685.48 421.944 1686.64C422.709 1687.22 423.473 1687.81 424.261 1688.41C426.472 1690.11 428.675 1691.82 430.875 1693.54C445.405 1704.83 460.341 1715.45 475.824 1725.52C478.014 1726.95 480.193 1728.4 482.369 1729.85C491.167 1735.71 500.063 1741.34 509.212 1746.69C509.86 1747.07 510.508 1747.45 511.175 1747.84C515.265 1750.24 519.362 1752.62 523.465 1755C525.091 1755.94 526.713 1756.9 528.334 1757.85C557.537 1774.88 587.83 1790.23 619.186 1803.31C622.865 1804.84 626.523 1806.42 630.171 1808.02C639.274 1812.01 648.501 1815.67 657.79 1819.25C658.582 1819.55 659.373 1819.86 660.189 1820.17C671.434 1824.51 682.712 1828.55 694.265 1832.08C697.419 1833.07 700.517 1834.21 703.624 1835.33C727.089 1843.65 751.489 1850.19 775.848 1855.62C779.797 1856.51 783.714 1857.48 787.632 1858.48C836.305 1870.44 887.491 1877.15 937.696 1879.47C941.661 1879.66 945.603 1879.91 949.552 1880.29C966.098 1881.82 982.595 1881.77 999.198 1881.59C1001.61 1881.56 1004.02 1881.53 1006.42 1881.51C1035.81 1881.19 1064.89 1879.51 1094.11 1876.42C1095.44 1876.29 1095.44 1876.29 1096.79 1876.15C1156.96 1869.87 1217.11 1857.62 1274.6 1839.53C1277.94 1838.49 1281.29 1837.48 1284.64 1836.49C1285.65 1836.19 1286.66 1835.89 1287.7 1835.58C1289.68 1834.99 1291.65 1834.41 1293.63 1833.83C1299.03 1832.22 1304.24 1830.39 1309.45 1828.28C1312.37 1827.12 1315.34 1826.13 1318.32 1825.14C1331.6 1820.74 1344.45 1815.4 1357.33 1810.06C1360.29 1808.83 1363.27 1807.62 1366.25 1806.42C1374.22 1803.18 1382 1799.78 1389.67 1795.92C1393.65 1793.93 1397.69 1792.06 1401.74 1790.18C1415.94 1783.59 1429.84 1776.54 1443.59 1769.12C1445.45 1768.12 1447.32 1767.14 1449.19 1766.16C1457.25 1761.98 1465.07 1757.51 1472.84 1752.85C1474.06 1752.12 1475.29 1751.39 1476.51 1750.66C1491.25 1741.85 1505.83 1732.91 1519.98 1723.27C1522.7 1721.42 1525.43 1719.61 1528.16 1717.78C1535.12 1713.13 1542.01 1708.4 1548.78 1703.49C1549.38 1703.06 1549.98 1702.63 1550.6 1702.19C1558.53 1696.48 1566.31 1690.66 1573.82 1684.46C1576.5 1682.25 1579.21 1680.09 1581.93 1677.94C1591.77 1670.09 1601.34 1661.99 1610.66 1653.58C1612.88 1651.59 1615.12 1649.63 1617.4 1647.7C1618.68 1646.61 1619.96 1645.52 1621.25 1644.43C1622.2 1643.63 1622.2 1643.63 1623.17 1642.81C1631.24 1635.88 1638.78 1628.46 1646.35 1621.05C1648.7 1618.76 1651.05 1616.47 1653.4 1614.19C1654.91 1612.71 1656.42 1611.23 1657.94 1609.76C1658.63 1609.08 1659.32 1608.41 1660.03 1607.72C1663.94 1603.89 1667.67 1599.96 1671.29 1595.87C1672.94 1594.01 1674.65 1592.21 1676.39 1590.43C1676.99 1589.81 1677.6 1589.2 1678.22 1588.56C1678.83 1587.93 1679.45 1587.3 1680.08 1586.65C1685.06 1581.52 1689.82 1576.32 1694.33 1570.8C1696.93 1567.66 1699.63 1564.61 1702.35 1561.56C1708.23 1554.92 1713.79 1548.07 1719.28 1541.13C1720.13 1540.06 1720.99 1538.98 1721.84 1537.91C1724.29 1534.82 1726.73 1531.71 1729.16 1528.61C1729.88 1527.69 1730.6 1526.77 1731.34 1525.83C1741.33 1512.96 1750.66 1499.68 1759.76 1486.23C1760.72 1484.82 1761.69 1483.42 1762.65 1482.01C1763.66 1480.53 1764.67 1479.05 1765.67 1477.56C1766.04 1477.02 1766.41 1476.48 1766.78 1475.92C1772.34 1467.68 1777.72 1459.36 1782.92 1450.92C1783.41 1450.11 1783.91 1449.3 1784.42 1448.48C1786.41 1445.21 1788.31 1441.99 1790.01 1438.58C1791.27 1436.19 1791.27 1436.19 1793.26 1435.21C1794.6 1432.77 1795.85 1430.33 1797.07 1427.83C1799.43 1422.98 1801.96 1418.54 1805.06 1414.06C1806.09 1412.14 1807.1 1410.19 1808.06 1408.23C1809.45 1405.44 1810.82 1402.73 1812.48 1400.07C1814.34 1396.98 1815.51 1393.77 1816.76 1390.43C1817.8 1388.12 1817.8 1388.12 1819.29 1386.25C1821.12 1383.79 1821.76 1381.39 1822.71 1378.51C1824.23 1375.28 1825.93 1372.14 1827.61 1368.99C1829.63 1365.12 1831.3 1361.27 1832.79 1357.18C1833.73 1354.84 1835.11 1352.8 1836.44 1350.64C1837.38 1348.31 1838.27 1345.99 1839.12 1343.62C1841.15 1338.11 1843.38 1332.72 1845.83 1327.36C1848.24 1322.09 1850.28 1316.83 1852.02 1311.32C1852.99 1308.5 1854.11 1305.82 1855.33 1303.1C1857.98 1296.9 1859.99 1290.61 1861.9 1284.18C1865.53 1272.14 1865.53 1272.14 1867.09 1268.22C1869.64 1261.76 1871.41 1255.03 1873.37 1248.39C1873.91 1246.54 1874.46 1244.69 1875.02 1242.84C1875.2 1242.23 1875.38 1241.62 1875.57 1240.99C1876.85 1236.78 1878.32 1232.66 1879.87 1228.54C1881.99 1222.82 1883.34 1217.22 1884.3 1211.23C1884.6 1209.48 1884.9 1207.73 1885.2 1205.98C1885.33 1205.22 1885.45 1204.47 1885.57 1203.7C1885.96 1201.95 1885.96 1201.95 1886.95 1200.99C1887.24 1199.56 1887.49 1198.12 1887.7 1196.67C1887.85 1195.76 1887.99 1194.84 1888.13 1193.9C1888.29 1192.9 1888.44 1191.9 1888.6 1190.87C1890.22 1180.57 1892.21 1170.38 1894.39 1160.17C1894.76 1158.45 1895.12 1156.73 1895.49 1155.01C1895.73 1153.86 1895.73 1153.86 1895.99 1152.69C1897.4 1145.88 1898.33 1139.03 1899.25 1132.15C1900.13 1125.66 1901 1119.19 1902.12 1112.74C1903.06 1107.14 1903.52 1101.55 1903.89 1095.89C1904.33 1089.55 1904.83 1083.24 1905.69 1076.93C1908.69 1053.01 1908.5 1028.93 1908.15 1004.88C1908.11 1001.72 1908.08 998.559 1908.04 995.396C1907.8 971.325 1907.05 947.397 1904.44 923.44C1904.15 920.714 1903.86 917.987 1903.58 915.26C1903.39 913.485 1903.2 911.71 1903.01 909.935C1902.93 909.14 1902.85 908.345 1902.76 907.526C1902.23 902.695 1901.36 898.018 1900.27 893.275C1899.67 890.61 1899.23 887.94 1898.82 885.241C1898.67 884.198 1898.51 883.155 1898.34 882.081C1898.18 880.986 1898.01 879.892 1897.84 878.765C1895.89 866.249 1893.44 853.864 1890.82 841.464C1889.74 836.254 1888.76 831.027 1887.77 825.799C1887.15 822.821 1886.4 819.904 1885.58 816.971C1884.88 814.396 1884.23 811.81 1883.59 809.221C1880.73 797.67 1877.73 786.209 1874.16 774.84C1873.53 772.813 1872.92 770.782 1872.32 768.748C1867.2 751.467 1861.5 734.413 1855.06 717.538C1853.34 713.01 1851.67 708.496 1850.23 703.877C1849.08 700.263 1847.55 697.123 1845.7 693.778C1844.31 690.383 1843.09 686.929 1841.84 683.482C1841.59 682.793 1841.33 682.104 1841.07 681.394C1840.85 680.777 1840.62 680.159 1840.39 679.524C1839.54 677.469 1839.54 677.469 1838.02 675.275C1836.51 672.897 1835.55 670.7 1834.59 668.08C1832.24 661.902 1829.44 655.963 1826.54 649.999C1826.26 649.418 1825.98 648.838 1825.69 648.24C1814.94 626.038 1803.64 604.037 1790.84 582.842C1789.5 580.613 1788.18 578.372 1786.86 576.126C1774.71 555.371 1760.91 535.591 1746.78 516.023C1746.35 515.428 1745.92 514.833 1745.48 514.22C1737.76 503.533 1729.64 493.154 1721.41 482.824C1720.53 481.712 1719.65 480.599 1718.77 479.486C1714.03 473.542 1709.16 467.73 1704.18 461.969C1703.55 461.223 1702.92 460.476 1702.27 459.707C1697.98 454.652 1693.59 449.706 1689.12 444.802C1686.23 441.627 1683.42 438.407 1680.63 435.145C1676.08 429.903 1671.17 425.018 1666.21 420.136C1663.04 417.023 1659.94 413.881 1656.93 410.633C1654.4 407.901 1651.79 405.302 1649.02 402.786C1646.25 400.269 1643.66 397.67 1641.15 394.921C1637.47 390.955 1633.49 387.405 1629.37 383.868C1627.94 382.629 1626.51 381.389 1625.08 380.148C1624.41 379.565 1623.74 378.981 1623.05 378.38C1620.88 376.474 1618.77 374.515 1616.68 372.527C1613.71 369.711 1610.62 367.113 1607.42 364.541C1604.4 362.059 1601.45 359.501 1598.5 356.94C1591.09 350.518 1583.53 344.362 1575.69 338.413C1572.77 336.182 1569.9 333.908 1567.02 331.631C1561.61 327.396 1556.02 323.432 1550.35 319.504C1546.65 316.932 1543 314.325 1539.42 311.6C1519.7 296.732 1498.26 283.92 1477 271.193C1475.82 270.479 1475.82 270.479 1474.61 269.751C1455.14 258.035 1434.95 247.643 1414.59 237.419C1413.85 237.046 1413.11 236.674 1412.35 236.291C1399.68 229.925 1386.85 223.982 1373.8 218.36C1373.19 218.097 1372.58 217.834 1371.95 217.564C1362.14 213.334 1352.25 209.33 1342.24 205.525C1340 204.653 1337.79 203.735 1335.58 202.811C1331.82 201.252 1328.03 199.863 1324.17 198.555C1319.09 196.827 1314.03 195.056 1308.99 193.225C1296.03 188.525 1283.06 184.197 1269.75 180.48C1266.62 179.6 1263.51 178.697 1260.39 177.79C1249.69 174.696 1239 171.708 1228.08 169.367C1223.52 168.383 1218.99 167.283 1214.48 166.108C1204.72 163.574 1194.92 161.439 1185.01 159.535C1184.22 159.381 1183.42 159.228 1182.61 159.07C1140.82 151.001 1098.78 145.763 1056.27 142.634C1055.59 142.583 1054.9 142.531 1054.19 142.477C1030.28 140.686 1006.34 141.064 982.374 141.303C981.555 141.311 980.735 141.319 979.891 141.327C975.119 141.373 970.347 141.426 965.575 141.488C964.099 141.507 962.623 141.525 961.146 141.541C959.096 141.564 957.046 141.594 954.996 141.625C953.84 141.64 952.684 141.656 951.493 141.672C947.988 141.842 944.624 142.321 941.162 142.862Z" fill="#1D1A16"/>
<path d="M1024.16 635.053C1032.72 640.826 1037.33 648.072 1041.54 657.112C1042.02 658.137 1042.02 658.137 1042.52 659.182C1045.35 665.418 1047.14 671.702 1048.77 678.309C1049.31 680.431 1049.85 682.553 1050.4 684.674C1050.65 685.68 1050.91 686.687 1051.18 687.723C1052.59 693.148 1054.24 698.487 1056.03 703.807C1056.27 704.501 1056.5 705.195 1056.74 705.91C1057.53 708.21 1058.33 710.504 1059.13 712.798C1059.37 713.508 1059.62 714.219 1059.87 714.952C1061.52 719.56 1063.63 723.447 1066.29 727.602C1067.83 731.157 1069.19 734.721 1070.49 738.366C1072.72 744.462 1074.91 749.815 1079.06 754.948C1080.39 756.799 1081.42 758.558 1082.47 760.563C1085.32 765.99 1088.68 771.116 1092.01 776.282C1092.49 777.046 1092.98 777.811 1093.48 778.599C1093.91 779.282 1094.35 779.964 1094.8 780.668C1095.98 782.938 1096.5 785.022 1096.93 787.514C1097.59 787.508 1098.26 787.501 1098.94 787.494C1100.33 789.309 1100.33 789.309 1101.98 791.884C1104.88 796.253 1107.88 800.511 1111.06 804.697C1111.49 805.26 1111.92 805.823 1112.36 806.403C1115.56 810.551 1119.04 814.327 1122.87 817.967C1124.29 819.737 1124.29 819.737 1124.33 823.561C1124.93 823.801 1125.53 824.041 1126.15 824.289C1129.15 825.844 1130.75 827.977 1132.85 830.494C1134.35 832.17 1134.35 832.17 1136.52 833.022C1139.17 834.273 1139.81 836.203 1141.16 838.62C1143.44 841.9 1146.53 844.377 1149.57 847C1151.62 849.092 1151.62 849.092 1152.67 851.673C1153 852.392 1153.33 853.11 1153.67 853.851C1155.59 854.432 1155.59 854.432 1157.68 854.766C1159.56 856.278 1159.56 856.278 1161.47 858.192C1166.15 862.744 1171.05 866.968 1176.43 870.765C1178.68 872.547 1180.41 874.33 1182.31 876.441C1185.54 880.009 1188.93 882.389 1193.03 884.994C1193.37 885.622 1193.7 886.249 1194.05 886.896C1195.04 887.201 1196.04 887.506 1197.06 887.821C1197.91 888.847 1197.91 888.847 1198.77 889.895C1200.84 892.244 1202.5 893.6 1205.08 895.327C1208.77 897.811 1211.35 900.579 1214.24 903.896C1216.2 905.583 1218.2 907.198 1220.24 908.798C1222.73 910.842 1225.04 913.022 1227.37 915.233C1228.21 916.013 1229.04 916.793 1229.9 917.597C1234.11 921.537 1238.32 925.477 1242.53 929.417C1243.37 930.175 1244.21 930.933 1245.07 931.714C1247.77 934.323 1250.11 937.054 1252.46 939.951C1252.9 940.483 1253.33 941.015 1253.78 941.563C1257.33 945.928 1260.75 950.377 1264.12 954.869C1265.83 957.111 1265.83 957.111 1268.86 958.783C1268.87 960.044 1268.89 961.306 1268.9 962.606C1269.56 962.599 1270.22 962.593 1270.9 962.586C1272.43 964.594 1272.43 964.594 1274.08 967.213C1274.63 968.073 1275.17 968.932 1275.74 969.818C1277.01 972.083 1277.01 972.083 1277.02 973.995C1278.02 974.3 1279.01 974.605 1280.04 974.92C1282.73 978.63 1284.54 982.817 1285.17 987.295C1285.83 987.288 1286.49 987.281 1287.17 987.274C1296.2 998.911 1301.95 1013.18 1306.79 1026.8C1307.68 1029.3 1308.61 1031.78 1309.54 1034.26C1315.41 1050.01 1320.18 1065.68 1322.93 1082.21C1323.12 1083.31 1323.12 1083.31 1323.3 1084.43C1325.48 1098.71 1325.67 1113.19 1325.78 1127.59C1325.8 1130.33 1325.84 1133.06 1325.87 1135.8C1325.89 1137.54 1325.9 1139.29 1325.92 1141.03C1325.93 1141.84 1325.94 1142.66 1325.95 1143.5C1325.99 1149.17 1325.99 1149.17 1324.89 1151.32C1324.65 1152.94 1324.46 1154.57 1324.29 1156.2C1324.19 1157.2 1324.08 1158.19 1323.97 1159.22C1323.86 1160.28 1323.75 1161.35 1323.63 1162.44C1321.13 1185.14 1321.13 1185.14 1318.32 1193.45C1317.26 1196.58 1316.61 1199.68 1315.98 1202.91C1314.93 1208 1313.61 1212.63 1311.56 1217.42C1310.9 1217.43 1310.24 1217.43 1309.56 1217.44C1309.26 1220.28 1308.95 1223.12 1308.64 1226.05C1307.98 1226.06 1307.32 1226.07 1306.64 1226.07C1306.59 1227.08 1306.54 1228.09 1306.49 1229.12C1305.62 1236.47 1302.13 1243.36 1299.13 1250.11C1298.16 1252.36 1297.42 1254.39 1296.95 1256.76C1296.29 1256.77 1295.63 1256.78 1294.95 1256.79C1294.61 1257.95 1294.27 1259.12 1293.92 1260.32C1291.84 1266.57 1288.45 1272.2 1285.15 1277.92C1284.49 1277.92 1283.83 1277.93 1283.15 1277.94C1282.93 1278.55 1282.71 1279.17 1282.48 1279.8C1275.55 1295.68 1263.24 1312.46 1250.29 1324.43C1248.32 1326.38 1246.63 1328.46 1244.91 1330.61C1237.92 1339.26 1230.65 1346.95 1221.72 1353.78C1219.2 1355.79 1216.84 1357.89 1214.5 1360.08C1202.05 1371.7 1187.76 1381.18 1172.98 1389.88C1171.33 1390.86 1169.72 1391.89 1168.11 1392.92C1158.89 1398.78 1148.98 1403.07 1138.9 1407.41C1137.27 1408.11 1135.63 1408.83 1134.01 1409.55C1128.84 1411.84 1123.62 1413.89 1118.28 1415.8C1117.46 1416.1 1116.63 1416.4 1115.78 1416.7C1113.33 1417.58 1110.88 1418.44 1108.43 1419.31C1107.78 1419.55 1107.12 1419.78 1106.45 1420.02C1086.12 1427.27 1064.97 1430.68 1043.66 1434.09C1042.96 1434.2 1042.26 1434.32 1041.54 1434.43C1039.53 1434.75 1037.53 1435.06 1035.53 1435.36C1034.25 1435.55 1032.98 1435.74 1031.67 1435.94C1026.84 1436.55 1022.03 1436.61 1017.16 1436.66C1016.18 1436.67 1015.19 1436.69 1014.18 1436.7C1012.1 1436.73 1010.01 1436.75 1007.93 1436.77C1004.81 1436.81 1001.7 1436.86 998.582 1436.91C980.128 1437.15 962.296 1435.79 944.16 1432.59C942.761 1432.35 941.361 1432.11 939.962 1431.86C926.337 1429.48 913.297 1426.65 900.249 1422.14C898.013 1421.39 895.764 1420.69 893.509 1420C882.296 1416.52 871.638 1412.5 861.072 1407.51C860.274 1407.14 859.475 1406.76 858.653 1406.37C849.103 1401.85 839.793 1397.17 830.879 1391.57C829.136 1390.49 827.393 1389.42 825.649 1388.34C821.881 1386.01 818.115 1383.67 814.355 1381.33C813.163 1380.59 813.163 1380.59 811.947 1379.83C811.213 1379.36 810.479 1378.89 809.723 1378.41C808.962 1377.92 808.202 1377.43 807.418 1376.93C806.848 1376.48 806.277 1376.04 805.69 1375.58C805.683 1374.95 805.677 1374.32 805.67 1373.67C805.122 1373.6 804.575 1373.53 804.01 1373.46C800.775 1372.49 798.724 1370.74 796.11 1368.69C795.163 1367.95 794.216 1367.21 793.24 1366.46C790.891 1364.53 788.615 1362.65 786.516 1360.48C786.51 1359.85 786.503 1359.22 786.496 1358.57C785.915 1358.33 785.333 1358.1 784.734 1357.86C782.189 1356.55 780.52 1355.06 778.495 1353.09C777.839 1352.46 777.184 1351.83 776.509 1351.18C775.809 1350.51 775.109 1349.83 774.388 1349.13C771.507 1346.41 768.595 1343.73 765.66 1341.07C757.348 1333.48 749.753 1325.89 743.027 1316.95C742.573 1316.35 742.12 1315.76 741.653 1315.14C735.321 1306.78 729.347 1298.24 723.725 1289.43C723.105 1288.45 723.105 1288.45 722.472 1287.46C719.841 1283.33 717.231 1279.18 714.64 1275.02C713.74 1273.58 712.83 1272.15 711.916 1270.72C709.149 1266.28 707.222 1261.8 705.405 1256.94C704.012 1253.41 702.334 1250.03 700.607 1246.64C697.07 1239.3 694.104 1231.78 691.336 1224.15C691.019 1223.31 690.703 1222.46 690.377 1221.59C688.998 1217.79 687.792 1214.19 687.294 1210.19C686.86 1206.79 686.027 1204.11 684.778 1200.92C681.473 1191.03 679.955 1181.47 679.151 1171.13C678.781 1166.44 678.257 1161.93 677.288 1157.32C675.869 1150 675.823 1142.7 675.783 1135.29C675.777 1134.54 675.77 1133.8 675.764 1133.04C675.684 1122.07 676.087 1111.19 677.05 1100.26C677.207 1098.44 677.207 1098.44 677.368 1096.58C678.161 1088.52 679.608 1080.75 681.46 1072.85C682.121 1072.84 682.781 1072.83 683.462 1072.83C683.628 1071.46 683.628 1071.46 683.797 1070.06C685.313 1059.24 687.913 1048.31 693.386 1038.69C696.219 1033.25 698.35 1027.52 700.532 1021.82C702.526 1016.81 704.607 1012.92 708.469 1009.01C709.913 1007.45 710.883 1005.9 711.908 1004.06C713.612 1001.06 715.511 998.672 717.706 995.996C718.212 995.005 718.718 994.014 719.239 992.993C725.716 981.768 736.95 975.514 748.468 969.868C758.675 968.368 768.448 968.063 778.504 970.515C779.655 970.738 779.655 970.738 780.831 970.966C791.058 973.706 799.754 983.044 805.707 991.129C806.963 993.368 807.943 995.53 808.815 997.928C809.122 998.707 809.429 999.486 809.746 1000.29C811.529 1005.21 812.375 1009.97 812.784 1015.16C812.811 1017.01 812.811 1017.01 814.025 1017.95C814.3 1019.74 814.571 1021.53 814.829 1023.32C816.179 1032.14 818.666 1037.2 825.3 1043.65C830.367 1049.7 830.367 1049.7 830.393 1052.2C832.316 1052.5 832.316 1052.5 834.278 1052.81C836.496 1053.3 836.496 1053.3 838.42 1054.03C839.947 1056.52 839.947 1056.52 840.47 1058.79C841.098 1058.84 841.726 1058.89 842.372 1058.94C843.191 1059.01 844.01 1059.09 844.853 1059.16C845.667 1059.23 846.481 1059.3 847.319 1059.37C849.488 1059.65 849.488 1059.65 851.5 1060.58C854.18 1060.65 856.829 1060.66 859.508 1060.62C860.615 1060.62 860.615 1060.62 861.744 1060.61C865.761 1060.64 865.761 1060.64 869.505 1059.44C870.837 1059.33 872.172 1059.24 873.506 1059.16C879.194 1058.57 883.554 1056.18 888.463 1053.51C889.517 1053.02 889.517 1053.02 890.592 1052.52C900.219 1047.54 905.733 1035.38 909.13 1025.94C914.102 1004.67 907.172 977.778 895.161 959.584C894.58 958.788 894.58 958.788 893.987 957.976C891.581 954.463 889.948 950.855 888.341 946.958C887.335 944.521 886.275 942.118 885.166 939.723C884.847 939.025 884.527 938.327 884.198 937.608C883.362 935.803 883.362 935.803 881.239 935.043C880.481 933.22 879.729 931.393 879.024 929.55C878.214 927.565 877.292 925.74 876.245 923.862C873.488 918.84 871.228 913.637 868.954 908.402C868.674 907.77 868.395 907.139 868.108 906.489C857.94 883.458 851.683 860.072 851.771 834.968C851.78 832.172 851.755 829.379 851.726 826.583C851.717 824.78 851.71 822.976 851.705 821.172C851.699 820.35 851.693 819.527 851.686 818.68C851.716 813.9 852.383 809.913 853.88 805.309C854.327 803.263 854.751 801.212 855.15 799.157C855.496 797.445 855.496 797.445 855.848 795.699C856.319 793.34 856.783 790.981 857.238 788.619C858.581 782.043 860.33 776.214 863.394 770.175C864.794 767.333 865.737 764.436 866.7 761.44C868.741 755.328 871.319 749.442 874.342 743.717C875.132 742.219 875.87 740.697 876.598 739.171C878.35 735.941 880.361 732.979 882.466 729.951C884.186 727.454 885.849 724.928 887.499 722.389C888.081 721.498 888.663 720.607 889.262 719.69C890.406 717.913 891.53 716.124 892.632 714.322C896.311 708.398 900.483 703.421 905.363 698.354C908.261 695.292 910.885 692.081 913.522 688.815C921.166 679.462 929.251 670.71 937.992 662.283C939.681 660.655 941.361 659.019 943.04 657.382C948.121 652.444 953.218 647.576 958.699 643.037C960.359 641.649 961.942 640.2 963.526 638.735C980.138 624.875 1005.83 624 1024.16 635.053Z" fill="#1C1915"/>
<path d="M973.601 766.794C975.998 767.686 977.358 768.276 978.785 770.361C981.645 776.835 983.979 783.426 986.209 790.12C987.84 794.831 989.358 798.296 992.981 801.967C994.081 803.395 995.161 804.837 996.216 806.295C996.992 807.354 996.992 807.354 997.783 808.434C999.075 810.508 999.075 810.508 999.585 812.561C1000.01 814.707 1000.01 814.707 1003.14 816.203C1003.92 817.748 1004.69 819.302 1005.36 820.892C1006.61 823.793 1008.07 826.593 1009.51 829.413C1010.3 831.425 1010.3 831.425 1010.34 835.248C1011 835.242 1011.66 835.235 1012.34 835.228C1018.45 840.767 1024.71 847.955 1028.56 855.137C1028.57 856.399 1028.59 857.661 1028.6 858.961C1029.26 858.954 1029.92 858.947 1030.6 858.94C1031.95 860.64 1031.95 860.64 1033.46 862.914C1035.92 866.486 1038.51 869.247 1041.75 872.209C1043.76 874.473 1045.71 876.778 1047.65 879.087C1050.55 882.506 1053.51 885.87 1056.47 889.236C1057.91 890.884 1059.33 892.541 1060.72 894.224C1065.67 900.173 1071.03 905.459 1076.8 910.686C1082.01 915.403 1086.86 920.025 1091.11 925.557C1092.6 927.435 1094.22 928.914 1096.15 930.384C1099.32 932.867 1102.42 935.397 1105.49 937.996C1108.68 940.683 1111.87 943.366 1115.08 946.023C1115.71 946.549 1116.35 947.075 1117 947.617C1118.59 948.935 1118.59 948.935 1120.62 949.79C1120.63 950.421 1120.64 951.052 1120.64 951.702C1121.33 951.873 1122.01 952.043 1122.71 952.219C1126.89 954.117 1129.56 957.038 1132.74 960.182C1136.44 963.696 1140.24 967.071 1144.11 970.402C1144.97 971.144 1144.97 971.144 1145.85 971.902C1149.85 975.346 1153.9 978.741 1157.99 982.086C1169.59 991.94 1180.8 1003.61 1189.37 1016C1189.38 1016.95 1189.39 1017.9 1189.4 1018.87C1190.06 1018.86 1190.72 1018.86 1191.4 1018.85C1194.55 1022.55 1196.78 1025.9 1198.66 1030.32C1199.72 1032.5 1201 1034.46 1202.34 1036.48C1207.79 1044.84 1212.91 1052.69 1213.87 1062.6C1214.78 1065.03 1215.83 1067.37 1216.91 1069.74C1222.23 1081.57 1224.47 1093.64 1225.69 1106.38C1225.77 1107.21 1225.85 1108.05 1225.93 1108.9C1226.03 1110.02 1226.03 1110.02 1226.13 1111.17C1226.36 1113.32 1226.36 1113.32 1227.43 1115.99C1227.59 1118.55 1227.68 1121.08 1227.7 1123.64C1227.71 1124.81 1227.71 1124.81 1227.72 1126.01C1227.73 1133.18 1227.35 1140.33 1226.88 1147.49C1226.81 1148.55 1226.75 1149.61 1226.68 1150.71C1226.18 1157.71 1225.26 1164.56 1224 1171.48C1223.34 1171.48 1222.68 1171.49 1222 1171.5C1221.9 1172.54 1221.8 1173.59 1221.69 1174.67C1219.87 1189.62 1214.93 1203.41 1207.45 1216.58C1205.51 1220.26 1203.66 1223.98 1201.85 1227.72C1199.1 1233.33 1196.52 1238.34 1192.04 1242.88C1190.44 1244.8 1189.67 1246.69 1188.76 1248.97C1187 1253.22 1184.85 1254.49 1180.84 1257C1179.25 1259.09 1177.87 1261.26 1176.46 1263.46C1174.52 1266.24 1172.25 1268.43 1169.75 1270.74C1167.9 1272.51 1166.25 1274.37 1164.58 1276.29C1161.69 1279.55 1158.6 1282.39 1155.21 1285.18C1152.18 1287.71 1149.27 1290.37 1146.35 1293.02C1144.19 1294.66 1144.19 1294.66 1141.49 1295.69C1140.36 1296.15 1140.36 1296.15 1139.2 1296.63C1138.88 1297.58 1138.56 1298.53 1138.23 1299.5C1136.06 1301.07 1136.06 1301.07 1133.26 1302.72C1129.81 1304.79 1126.43 1306.88 1123.13 1309.16C1117.26 1313.01 1110.86 1315.9 1104.5 1318.93C1102.47 1319.92 1100.47 1320.94 1098.47 1321.98C1062.32 1340.59 1015.1 1347.17 974.512 1342.3C974.179 1341.98 973.845 1341.67 973.502 1341.35C972.141 1341.13 970.77 1340.95 969.398 1340.81C968.54 1340.71 967.681 1340.61 966.796 1340.51C965.867 1340.41 964.938 1340.3 963.98 1340.19C929.509 1336.03 929.509 1336.03 915.824 1328.02C913.059 1326.55 910.44 1326.06 907.366 1325.43C903.656 1324.39 900.61 1322.39 897.4 1320.38C895.997 1319.53 894.592 1318.68 893.186 1317.83C892.164 1317.22 892.164 1317.22 891.121 1316.59C887.581 1314.54 883.872 1312.81 880.139 1311.1C878.085 1309.83 878.085 1309.83 877.024 1307.83C876.539 1306.93 876.539 1306.93 876.044 1306.02C874.136 1305.46 874.136 1305.46 872.031 1305.11C865.893 1301.44 860.585 1296.55 855.267 1291.88C852.421 1289.41 849.552 1287.17 846.363 1285.12C842.787 1282.75 840.866 1280.06 838.809 1276.42C837.701 1274.55 837.701 1274.55 834.674 1273.94C833.186 1272.6 833.186 1272.6 831.576 1270.81C830.958 1270.13 830.339 1269.44 829.702 1268.74C829.005 1267.96 828.308 1267.17 827.589 1266.37C826.388 1265.05 826.388 1265.05 825.161 1263.71C816.741 1254.4 809.386 1245.27 803.779 1234.17C802.421 1231.66 800.989 1229.67 799.162 1227.47C798.399 1225.86 797.639 1224.25 796.927 1222.63C796.059 1220.74 795.073 1218.94 794.051 1217.12C792.297 1213.89 791.028 1210.67 789.855 1207.21C788.904 1204.59 787.818 1202.03 786.717 1199.46C783.225 1191.22 780.91 1182.99 779.035 1174.29C778.606 1172.37 778.119 1170.46 777.626 1168.56C774.883 1157.31 774.356 1145.55 775.179 1134.02C775.506 1133.71 775.833 1133.39 776.17 1133.06C781.526 1133.5 786.296 1134.01 790.232 1137.69C792.225 1138.44 794.243 1139.04 796.285 1139.66C798.268 1140.48 798.268 1140.48 799.646 1141.82C813.354 1154.24 844.175 1155.77 862.085 1155.4C898.819 1154.01 932.112 1142.79 959.671 1119.07C960.943 1117.99 962.257 1116.95 963.579 1115.92C970.667 1110.36 976.005 1102.87 980.985 1095.58C981.973 1095.26 982.96 1094.93 983.978 1094.59C985.314 1092.34 986.476 1090.15 987.599 1087.81C988.294 1086.39 988.99 1084.97 989.686 1083.55C990.04 1082.83 990.394 1082.1 990.759 1081.36C991.756 1079.36 992.802 1077.41 993.881 1075.45C1005.86 1053.58 1009.4 1029.87 1008.09 1005.44C1008.01 1003.93 1008.01 1003.93 1007.93 1002.39C1006.54 978.625 1001.77 955.65 991.584 933.845C990.208 930.843 988.969 927.806 987.737 924.747C985.805 920.031 983.617 915.554 981.106 911.095C980.07 909.171 980.07 909.171 979.039 906.314C978.042 905.693 977.045 905.073 976.017 904.433C975.255 902.607 974.5 900.777 973.807 898.926C972.089 894.765 969.494 891.039 967.06 887.233C964.541 883.195 962.9 879.51 961.7 874.944C961.04 874.951 960.379 874.958 959.699 874.965C959.436 874.112 959.173 873.26 958.902 872.381C958.545 871.229 958.189 870.077 957.822 868.89C957.635 868.283 957.447 867.676 957.254 867.051C956.154 863.499 955.007 859.967 953.815 856.443C952.599 852.77 951.936 849.225 951.387 845.414C951.053 845.102 950.72 844.79 950.376 844.469C948.092 824.014 949.648 803.096 962.788 786.025C963.299 784.761 963.77 783.482 964.188 782.187C965.47 778.424 967.545 776.053 970.3 773.147C971.998 771.193 972.859 769.22 973.601 766.794Z" fill="#FADB50"/>
</g>
<defs>
<clipPath id="clip0_2_3">
<rect y="21.5649" width="2097.93" height="2064.84" rx="200" transform="rotate(-0.588961 0 21.5649)" fill="white"/>
</clipPath>
</defs>
</svg>
